<?xml version="1.0" standalone="no"?>
<!DOCTYPE svg PUBLIC "-//W3C//DTD SVG 1.1//EN" "http://www.w3.org/Graphics/SVG/1.1/DTD/svg11.dtd" >
<svg>
<metadata>
Created by FontForge 20090914 at Fri Apr 12 08:51:27 2013
 By www-data
URW Software, Copyright 1993 by URW
</metadata>
<defs>
<font id="Bauhaus93" horiz-adv-x="1024" >
  <font-face 
    font-family="Bauhaus 93"
    font-weight="400"
    font-stretch="normal"
    units-per-em="2048"
    panose-1="4 3 9 5 2 11 2 2 12 2"
    ascent="1638"
    descent="-410"
    x-height="983"
    cap-height="1365"
    bbox="-232 -512 2614 1841"
    underline-thickness="214"
    underline-position="-104"
    unicode-range="U+0020-U+F002"
  />
<missing-glyph horiz-adv-x="512" 
d="M51 0v1365h410v-1365h-410zM410 51v1263h-308v-1263h308z" />
    <glyph glyph-name=".notdef" horiz-adv-x="512" 
d="M51 0v1365h410v-1365h-410zM410 51v1263h-308v-1263h308z" />
    <glyph glyph-name="space" unicode=" " horiz-adv-x="512" 
 />
    <glyph glyph-name="space" unicode="&#xa0;" horiz-adv-x="512" 
 />
    <glyph glyph-name="exclam" unicode="!" horiz-adv-x="884" 
d="M634 1365l-7 -847h-355l-21 847h383zM441 448c65.333 0 121.5 -23.668 168.5 -71.001s70.5 -103.666 70.5 -168.999s-23.333 -120.833 -70 -166.5s-103 -68.5 -169 -68.5c-68.667 0 -125.167 22.167 -169.5 66.5s-66.5 100.833 -66.5 169.5c0 66.667 23 123.167 69 169.5
s101.667 69.5 167 69.5z" />
    <glyph glyph-name="quotedbl" unicode="&#x22;" 
d="M400 818h-189l-76 547h343zM812 818h-189l-76 547h343z" />
    <glyph glyph-name="numbersign" unicode="#" horiz-adv-x="1383" 
d="M962 364l-51 -364h-225l51 364h-202l-51 -364h-226l52 364h-189l31 220h189l28 203h-188l30 220h189l50 358h239l-50 -358h175l50 358h239l-50 -358h211l-31 -220h-211l-29 -203h211l-31 -220h-211zM797 787h-203l-28 -203h202z" />
    <glyph glyph-name="dollar" unicode="$" horiz-adv-x="1164" 
d="M409 1525h379v-125c61.333 -12 111.666 -29.667 150.999 -53v-355c-46.667 24 -86 36 -118 36c-28.667 0 -52.5 -8.66699 -71.5 -26s-28.5 -39.333 -28.5 -66c0 -30.667 15.667 -70 47 -118c57.333 -88 95.5 -155.667 114.5 -203s28.5 -98.333 28.5 -153
c0 -114 -41 -214.333 -123 -301v-313h-379v156c-63.333 10 -124.666 29.333 -183.999 58v362c52 -13.333 87.667 -20 107 -20c36 0 64.833 10 86.5 30s32.5 46.667 32.5 80c0 39.333 -19.333 86.333 -58 141l-40 58c-57.333 81.333 -86 165 -86 251
c0 133.333 47.333 245.333 142 336v225z" />
    <glyph glyph-name="percent" unicode="%" horiz-adv-x="1897" 
d="M487 1384c98.667 0 183.001 -34.832 253.001 -104.499s105 -153.834 105 -252.501c0 -99.333 -34.833 -183.833 -104.5 -253.5s-154.167 -104.5 -253.5 -104.5c-98.667 0 -182.834 35 -252.501 105s-104.5 154.333 -104.5 253c0 98 35 182 105 252s154 105 252 105z
M488.001 1184c-43.333 0 -80.333 -15.333 -111 -46s-46 -67.667 -46 -111s15.333 -80.333 46 -111s67.667 -46 111 -46s80.333 15.333 111 46s46 67.667 46 111s-15.333 80.333 -46 111s-67.667 46 -111 46zM1278 1365l-551 -1365h-122l554 1365h119zM1411 702.001
c98 0 182 -35 252 -105s105 -154.333 105 -253s-35 -183 -105 -253s-154 -105 -252 -105c-98.667 0 -183 35 -253 105s-105 154.333 -105 253s35 183 105 253s154.333 105 253 105zM1411 502.001c-43.333 0 -80.333 -15.333 -111 -46s-46 -67.667 -46 -111
c0 -44 15.333 -81.333 46 -112s67.667 -46 111 -46s80.333 15.333 111 46s46 68 46 112c0 43.333 -15.333 80.333 -46 111s-67.667 46 -111 46z" />
    <glyph glyph-name="ampersand" unicode="&#x26;" horiz-adv-x="1561" 
d="M931 586l254.001 0.000976562c2.66699 -31.333 4 -53.333 4 -66c0 -80.667 -19.667 -156.667 -59 -228l192 -292h-356l-40 48c-78 -54.667 -159.333 -82 -244 -82c-122.667 0 -227.167 42.5 -313.5 127.5s-129.5 187.833 -129.5 308.5c0 136.667 59.333 253.667 178 351
c-64 81.333 -96 165 -96 251c0 108.667 38.167 201.667 114.5 279s168.166 116 275.499 116c106 0 197.333 -37.333 274 -112s115 -163.334 115 -266.001c0 -14 -0.666992 -31.333 -2 -52h-309c-5.33301 68 -29 102 -71 102c-39.333 0 -59 -19 -59 -57
c0 -13.333 5.66699 -28.333 17 -45zM607.001 494.001c-32.667 -24 -49.001 -52 -49.001 -84c0 -30.667 9.83301 -56.667 29.5 -78s43.834 -32 72.501 -32c21.333 0 44.333 9 69 27z" />
    <glyph glyph-name="quotesingle" unicode="'" horiz-adv-x="512" 
d="M357 818h-202l-77 547h356z" />
    <glyph glyph-name="parenleft" unicode="(" horiz-adv-x="751" 
d="M665 -259l-279.998 -0.000976562c-90.667 147.333 -153.834 280.333 -189.501 399s-53.5 256.334 -53.5 413.001c0 154.667 18.167 292.667 54.5 414s99.166 254 188.499 398h279c-133.333 -280.667 -200 -550 -200 -808c0 -262.667 67 -534.667 201 -816z" />
    <glyph glyph-name="parenright" unicode=")" horiz-adv-x="751" 
d="M86 1365l279 0.000976562c91.333 -146.667 154.833 -279.5 190.5 -398.5s53.5 -256.833 53.5 -413.5c0 -154.667 -18.167 -292.834 -54.5 -414.501s-99.5 -254.167 -189.5 -397.5h-279c134 280.667 201 550 201 808c0 263.333 -67 535.333 -201 816z" />
    <glyph glyph-name="asterisk" unicode="*" 
d="M598 1190c26 4.66699 45.6699 7.00098 59.0029 7.00098c61.333 0 120.666 -29.667 177.999 -89l-179 -106c28.667 -42.667 43 -87.334 43 -134.001c0 -38.667 -12.667 -82 -38 -130l-155 136c-46.667 -52.667 -103.334 -79 -170.001 -79c-16.667 0 -39.667 2.33301 -69 7
l85 198c-92.667 30 -147 100.333 -163 211l211 -19c5.33301 92 55.666 161 150.999 207z" />
    <glyph glyph-name="plus" unicode="+" horiz-adv-x="1533" 
d="M621 555h-366v282h366v384h290v-384h366v-282h-366v-383h-290v383z" />
    <glyph glyph-name="comma" unicode="," horiz-adv-x="763" 
d="M376 -104v73.001c-66.667 4 -121 27.667 -163 71s-63 97 -63 161c0 67.333 22.5 123.833 67.5 169.5s100.833 68.5 167.5 68.5c64.667 0 119 -23 163 -69s66 -103 66 -171c0 -70.667 -21.5 -133.334 -64.5 -188.001s-100.833 -93 -173.5 -115z" />
    <glyph glyph-name="hyphen" unicode="-" horiz-adv-x="457" 
d="M457 738v-265h-457v265h457z" />
    <glyph glyph-name="hyphen" unicode="&#xad;" horiz-adv-x="457" 
d="M457 738v-265h-457v265h457z" />
    <glyph glyph-name="period" unicode="." horiz-adv-x="775" 
d="M386 448c65.333 0 121.5 -23.668 168.5 -71.001s70.5 -103.666 70.5 -168.999s-23.333 -120.833 -70 -166.5s-103 -68.5 -169 -68.5c-68.667 0 -125.167 22.167 -169.5 66.5s-66.5 100.833 -66.5 169.5c0 66.667 23 123.167 69 169.5s101.667 69.5 167 69.5z" />
    <glyph glyph-name="slash" unicode="/" horiz-adv-x="710" 
d="M615 1365l-373 -1624h-182l372 1624h183z" />
    <glyph glyph-name="zero" unicode="0" horiz-adv-x="1164" 
d="M95 533v300c0 174.667 43.5 312.667 130.5 414s205.5 152 355.5 152s268.667 -50.667 356 -152s131 -239.333 131 -414v-300c0 -174.667 -43.667 -312.834 -131 -414.501s-206 -152.5 -356 -152.5s-268.5 50.833 -355.5 152.5s-130.5 239.834 -130.5 414.501zM484 913
v-460c0 -83.333 32.333 -125 97 -125c65.333 0 98 41.667 98 125v460c0 83.333 -32.667 125 -98 125c-64.667 0 -97 -41.667 -97 -125z" />
    <glyph glyph-name="one" unicode="1" horiz-adv-x="1164" 
d="M776 1365v-1365h-387v1365h387z" />
    <glyph glyph-name="two" unicode="2" horiz-adv-x="1164" 
d="M1065 395l-0.000976562 -394.999h-882l438 822l15 28c12 22 18 43.667 18 65c0 54 -31.667 81 -95 81c-24.667 0 -46.167 -9.16699 -64.5 -27.5s-27.5 -39.833 -27.5 -64.5c0 -28 12 -53.333 36 -76l-175 -312c-73.333 45.333 -129.666 103 -168.999 173
s-59 147.333 -59 232c0 131.333 46.333 243.833 139 337.5s204.667 140.5 336 140.5c132 0 244.167 -46.333 336.5 -139s138.5 -205.334 138.5 -338.001c0 -76 -17 -146.667 -51 -212l-162 -315h228z" />
    <glyph glyph-name="three" unicode="3" horiz-adv-x="1164" 
d="M220 1365l722.998 -0.000976562l-223 -525c80 -54 138.167 -113.167 174.5 -177.5s54.5 -140.5 54.5 -228.5c0 -131.333 -48.333 -242.166 -145 -332.499s-215.667 -135.5 -357 -135.5c-78 0 -155.333 14.667 -232 44v386c58 -36 108.333 -54 151 -54
c46.667 0 85.834 16.667 117.501 50s47.5 74.666 47.5 123.999c0 56.667 -23.667 101.834 -71 135.501s-110.666 50.5 -189.999 50.5l101 269h-151v394z" />
    <glyph glyph-name="four" unicode="4" horiz-adv-x="1164" 
d="M1084 1365v-1365h-384v1042l-170 -338h84v-297h-533l404 958h599z" />
    <glyph glyph-name="five" unicode="5" horiz-adv-x="1164" 
d="M953 1365l-0.000976562 -391.999h-336l-18 -62c122.667 -35.333 213.334 -86.333 272.001 -153c80.667 -90.667 121 -199.334 121 -326.001c0 -134 -49.167 -245.167 -147.5 -333.5s-222.166 -132.5 -371.499 -132.5c-100.667 0 -200 26.333 -298 79v336
c78 -38 146.667 -57 206 -57c61.333 0 109.833 14 145.5 42s53.5 66 53.5 114c0 54 -27.5 99.667 -82.5 137s-122.833 56 -203.5 56c-30.667 0 -71.334 -5.66699 -122.001 -17l147 709h634z" />
    <glyph glyph-name="six" unicode="6" horiz-adv-x="1164" 
d="M364 1405l359.001 -127l-266 -746c-8 -21.333 -12 -40.333 -12 -57c0 -36 13.333 -67 40 -93s58.334 -39 95.001 -39s67.834 13.167 93.501 39.5s38.5 58.166 38.5 95.499s-12.833 69 -38.5 95s-56.834 39 -93.501 39c-8.66699 0 -21.667 -1.33301 -39 -4l163 392
c141.333 -61.333 243.166 -131.833 305.499 -211.5s93.5 -178.5 93.5 -296.5c0 -148 -50.5 -272.667 -151.5 -374s-224.833 -152 -371.5 -152c-138.667 0 -259.834 50.833 -363.501 152.5s-155.5 220.5 -155.5 356.5c0 62.667 24.333 161.334 73 296.001z" />
    <glyph glyph-name="seven" unicode="7" horiz-adv-x="1164" 
d="M1043 1365l-397 -1365h-415l309 973h-418v392h921z" />
    <glyph glyph-name="eight" unicode="8" horiz-adv-x="1164" 
d="M917 783c56.667 -58.667 95.666 -112.666 116.999 -161.999s32 -109.333 32 -180c0 -135.333 -46.167 -248.333 -138.5 -339s-207.5 -136 -345.5 -136c-138.667 0 -254.167 45.333 -346.5 136s-138.5 203.667 -138.5 339c0 68.667 11.167 128.667 33.5 180
s60.833 105.333 115.5 162c-49.333 65.333 -74 138 -74 218c0 115.333 38.333 210.5 115 285.5s174.334 112.5 293.001 112.5c120 0 218.5 -37.333 295.5 -112s115.5 -170.334 115.5 -287.001c0 -78.667 -24.667 -151 -74 -217zM576.999 1106
c-30 0 -55.832 -11.001 -77.499 -33.001s-32.5 -47.667 -32.5 -77c0 -34 10.667 -62 32 -84s48.666 -33 81.999 -33c30 0 55.833 11.333 77.5 34s32.5 49.334 32.5 80.001c0 32 -11 58.833 -33 80.5s-49 32.5 -81 32.5zM580 597
c-45.333 0 -84.1641 -15.832 -116.497 -47.499s-48.5 -69.834 -48.5 -114.501c0 -48.667 15.667 -89.167 47 -121.5s70.666 -48.5 117.999 -48.5s86.666 16.167 117.999 48.5s47 72.833 47 121.5c0 44 -16.333 82 -49 114s-71.334 48 -116.001 48z" />
    <glyph glyph-name="nine" unicode="9" horiz-adv-x="1164" 
d="M801 -40l-358.999 127.001l266 746c7.33301 21.333 11 40.666 11 57.999c0 36 -13.333 67 -40 93s-58.334 39 -95.001 39s-67.834 -13.167 -93.501 -39.5s-38.5 -58.166 -38.5 -95.499c0 -38 12.833 -70 38.5 -96s57.167 -39 94.5 -39c8 0 20.667 1.33301 38 4l-162 -392
c-142 62 -244.167 132.667 -306.5 212s-93.5 178.333 -93.5 297c0 147.333 50.5 271.666 151.5 372.999s224.833 152 371.5 152c138.667 0 259.834 -50.833 363.501 -152.5s155.5 -220.5 155.5 -356.5c0 -63.333 -24.333 -162 -73 -296z" />
    <glyph glyph-name="colon" unicode=":" horiz-adv-x="775" 
d="M386 448c65.333 0 121.5 -23.668 168.5 -71.001s70.5 -103.666 70.5 -168.999s-23.333 -120.833 -70 -166.5s-103 -68.5 -169 -68.5c-68.667 0 -125.167 22.167 -169.5 66.5s-66.5 100.833 -66.5 169.5c0 66.667 23 123.167 69 169.5s101.667 69.5 167 69.5zM386 1018
c65.333 0 121.5 -23.668 168.5 -71.001s70.5 -103.666 70.5 -168.999s-23.333 -120.833 -70 -166.5s-103 -68.5 -169 -68.5c-68.667 0 -125.167 22.167 -169.5 66.5s-66.5 100.833 -66.5 169.5c0 66.667 23 123.167 69 169.5s101.667 69.5 167 69.5z" />
    <glyph glyph-name="semicolon" unicode=";" horiz-adv-x="775" 
d="M381 -104v73.001c-66.667 4 -121 27.667 -163 71s-63 97 -63 161c0 67.333 22.5 123.833 67.5 169.5s100.833 68.5 167.5 68.5c64.667 0 119 -23 163 -69s66 -103 66 -171c0 -70.667 -21.5 -133.334 -64.5 -188.001s-100.833 -93 -173.5 -115zM386 1018
c65.333 0 121.5 -23.668 168.5 -71.001s70.5 -103.666 70.5 -168.999s-23.333 -120.833 -70 -166.5s-103 -68.5 -169 -68.5c-68.667 0 -125.167 22.167 -169.5 66.5s-66.5 100.833 -66.5 169.5c0 66.667 23 123.167 69 169.5s101.667 69.5 167 69.5z" />
    <glyph glyph-name="less" unicode="&#x3c;" 
d="M955 1329v-363l-501 -275l501 -275v-361l-887 485v305z" />
    <glyph glyph-name="equal" unicode="=" horiz-adv-x="1533" 
d="M255 995h1022v-252h-1022v252zM255 650h1022v-252h-1022v252z" />
    <glyph glyph-name="greater" unicode="&#x3e;" 
d="M68 55v363l501 275l-500 275v361l886 -485v-305z" />
    <glyph glyph-name="question" unicode="?" horiz-adv-x="1087" 
d="M721 501l-371 -0.000976562v63c0 83.333 9.33301 144.833 28 184.5s52.667 70.5 102 92.5l68 30c51.333 22.667 77 54.667 77 96c0 24 -8.33301 44.333 -25 61s-37 25 -61 25c-65.333 0 -98 -45.333 -98 -136h-345c0 121.333 28 220.333 84 297
c41.333 56.667 95 101.667 161 135s134.333 50 205 50c125.333 0 230.833 -41.5 316.5 -124.5s128.5 -185.833 128.5 -308.5c0 -151.333 -61.333 -257.666 -184 -318.999c-40 -20 -64.333 -37.333 -73 -52s-13 -46 -13 -94zM542 447.999
c65.333 0 121.5 -23.668 168.5 -71.001s70.5 -103.666 70.5 -168.999s-23.333 -120.833 -70 -166.5s-103 -68.5 -169 -68.5c-68.667 0 -125.167 22.167 -169.5 66.5s-66.5 100.833 -66.5 169.5c0 66.667 23 123.167 69 169.5s101.667 69.5 167 69.5z" />
    <glyph glyph-name="at" unicode="@" horiz-adv-x="1533" 
d="M1193 193l39.001 -156c-125.333 -42.667 -260.333 -64 -405 -64c-249.333 0 -441 74.667 -575 224c-116 129.333 -174 287 -174 473c0 204.667 68.667 376 206 514s307.666 207 510.999 207c190.667 0 348.334 -56.833 473.001 -170.5s187 -257.167 187 -430.5
c0 -131.333 -39.667 -240.5 -119 -327.5s-179 -130.5 -299 -130.5c-64 0 -115.167 11.833 -153.5 35.5s-57.5 55.5 -57.5 95.5c0 18.667 3.66699 42.667 11 72l38 145c2.66699 11.333 4 24.333 4 39c0 54 -26.333 81 -79 81c-32.667 0 -61.167 -12.5 -85.5 -37.5
s-36.5 -53.833 -36.5 -86.5c0 -42.667 20.333 -64 61 -64c19.333 0 38 3.33301 56 10l-90 -248c-21.333 -3.33301 -39 -5 -53 -5c-72.667 0 -130.5 21.5 -173.5 64.5s-64.5 101.167 -64.5 174.5c0 119.333 43.5 223.166 130.5 311.499s189.5 132.5 307.5 132.5
c84.667 0 152.834 -21.833 204.501 -65.5s77.5 -100.834 77.5 -171.501c0 -29.333 -4.33301 -61.666 -13 -96.999l-30 -121l-6 -21c-5.33301 -19.333 -8 -36 -8 -50c0 -32 14.667 -48 44 -48c45.333 0 86.666 32.333 123.999 97s56 136.334 56 215.001
c0 132.667 -46.167 240.334 -138.5 323.001s-212.833 124 -361.5 124c-160 0 -292.167 -53.833 -396.5 -161.5s-156.5 -243.834 -156.5 -408.501c0 -142 40.667 -262 122 -360c99.333 -120 252.666 -180 459.999 -180c118 0 239 22 363 66z" />
    <glyph glyph-name="A" unicode="A" horiz-adv-x="1212" 
d="M632 685l0.000976562 -360h-117v-325h-406v868c0 168 45.833 298.5 137.5 391.5s220.5 139.5 386.5 139.5c160 0 278.333 -42.167 355 -126.5s115 -214.5 115 -390.5v-882h-406v855c0 53.333 -6.33301 90.333 -19 111s-35.334 31 -68.001 31
c-63.333 0 -95 -47.333 -95 -142v-170h117z" />
    <glyph glyph-name="B" unicode="B" horiz-adv-x="1169" 
d="M137 1365h495.999c294 0 441 -115.667 441 -347c0 -114.667 -50.333 -210 -151 -286c146 -63.333 219 -176.333 219 -339c0 -124.667 -43 -224 -129 -298c-42 -35.333 -87 -60 -135 -74s-112.667 -21 -194 -21h-77v351h69c40.667 0 69.334 5.16699 86.001 15.5
s25 28.5 25 54.5c0 44 -34 66 -102 66h-78v364c74.667 0 112 25.667 112 77c0 47.333 -33.667 71 -101 71h-75v-999h-406v1365z" />
    <glyph glyph-name="C" unicode="C" horiz-adv-x="1540" 
d="M1060 667l424.999 -11.001c-28 -220 -104.167 -390 -228.5 -510s-286.5 -180 -486.5 -180c-203.333 0 -373.5 68.167 -510.5 204.5s-205.5 305.5 -205.5 507.5c0 203.333 69.833 374.333 209.5 513s311.834 208 516.501 208c201.333 0 369.333 -68 504 -204
c93.333 -94 159.333 -225 198 -393l-435 -29c-48.667 149.333 -141 224 -277 224c-86.667 0 -158.167 -30 -214.5 -90s-84.5 -136.333 -84.5 -229c0 -89.333 27.667 -163.166 83 -221.499s125.333 -87.5 210 -87.5c86 0 154.5 25.667 205.5 77s81.167 125 90.5 221z" />
    <glyph glyph-name="D" unicode="D" horiz-adv-x="1499" 
d="M543 973v-972.999h-406v1365h529c232 0 413.667 -52.667 545 -158c156 -126 234 -297 234 -513c0 -206.667 -66.667 -375.334 -200 -506.001s-305 -196 -515 -196c-24.667 0 -65 1.33301 -121 4v401h65c236.667 0 355 99 355 297c0 186 -116.333 279 -349 279h-137z" />
    <glyph glyph-name="E" unicode="E" horiz-adv-x="987" 
d="M865 834v-304h-265c-36 0 -61.5 -5.33301 -76.5 -16s-22.5 -28.667 -22.5 -54c0 -28.667 7.66699 -47.5 23 -56.5s46.666 -13.5 93.999 -13.5h273v-390h-319c-150 -0 -264.667 35.833 -344 107.5s-119 175.167 -119 310.5v535c0 130.667 37.5 232 112.5 304
s180.5 108 316.5 108h353v-392h-259c-70 0 -105 -22.667 -105 -68c0 -26.667 8.33301 -45.167 25 -55.5s46.334 -15.5 89.001 -15.5h224z" />
    <glyph glyph-name="F" unicode="F" horiz-adv-x="986" 
d="M650 722v-365.999h-135v-356h-406v847c0 159.333 49.167 291.166 147.5 395.499s222.166 156.5 371.499 156.5c164.667 0 302.334 -71 413.001 -213l-333 -243c-18.667 52 -51.667 78 -99 78c-62.667 0 -94 -43.333 -94 -130v-169h135z" />
    <glyph glyph-name="G" unicode="G" horiz-adv-x="1255" 
d="M715 765h386.999c83.333 -103.333 125 -212.333 125 -327c0 -133.333 -48.833 -245.333 -146.5 -336s-217.834 -136 -360.501 -136c-185.333 0 -342.666 70.333 -471.999 211s-194 312 -194 514c0 202.667 65.833 371.334 197.5 506.001s296.167 202 493.5 202
c67.333 0 142 -13.667 224 -41v-406c-64 30 -122.333 45 -175 45c-95.333 0 -173.166 -29.667 -233.499 -89s-90.5 -136.333 -90.5 -231c0 -96.667 28 -173.334 84 -230.001s131.667 -85 227 -85c60.667 0 91 17.667 91 53c0 26.667 -20 40 -60 40h-97v310z" />
    <glyph glyph-name="H" unicode="H" horiz-adv-x="1267" 
d="M656 877v-360h-113v-517h-406v1365h406v-488h113zM1131 1365v-1365h-406v1365h406z" />
    <glyph glyph-name="I" unicode="I" horiz-adv-x="679" 
d="M543 1365v-1365h-406v1365h406z" />
    <glyph glyph-name="J" unicode="J" horiz-adv-x="623" 
d="M527 1365v-920c0 -138.667 -39.333 -253.167 -118 -343.5s-178.334 -135.5 -299.001 -135.5c-35.333 0 -76.666 7.66699 -123.999 23v393c20 -8.66699 38.333 -13 55 -13c53.333 0 80 43 80 129v867h406z" />
    <glyph glyph-name="K" unicode="K" horiz-adv-x="1321" 
d="M1322 1365l-360 -619l358 -746h-456l-309 754l350 611h417zM543 1365v-1365h-406v1365h406z" />
    <glyph glyph-name="L" unicode="L" horiz-adv-x="687" 
d="M109 1365l406 0.000976562v-811c0 -63.333 10.167 -105.5 30.5 -126.5s60.5 -31.5 120.5 -31.5h21v-396h-108c-148 0 -263.333 43.167 -346 129.5s-124 206.166 -124 359.499v876z" />
    <glyph glyph-name="M" unicode="M" horiz-adv-x="1663" 
d="M109 0l-0.000976562 983.999c0 122 37 221.667 111 299s170 116 288 116c140 0 247.667 -64.333 323 -193c46 69.333 95.333 118.833 148 148.5s117.667 44.5 195 44.5c122.667 0 216.667 -38.667 282 -116s98 -188.666 98 -333.999v-949h-406v888
c0 44 -3.5 73.167 -10.5 87.5s-21.167 21.5 -42.5 21.5c-40 0 -60 -34 -60 -102v-895h-406v888c0 43.333 -3.66699 72.333 -11 87s-21.666 22 -42.999 22c-40 0 -60 -36.333 -60 -109v-888h-406z" />
    <glyph glyph-name="N" unicode="N" horiz-adv-x="1206" 
d="M109 0v886.001c0 155.333 46.5 279.666 139.5 372.999s216.833 140 371.5 140c154 0 271.833 -45.333 353.5 -136s122.5 -221 122.5 -391v-872h-406v872c0 83.333 -29.667 125 -89 125c-57.333 0 -86 -41.667 -86 -125v-872h-406z" />
    <glyph glyph-name="O" unicode="O" horiz-adv-x="1543" 
d="M784 1399c193.333 0 359.166 -70.334 497.499 -211.001s207.5 -309 207.5 -505c0 -199.333 -69.667 -368.666 -209 -507.999s-308.666 -209 -507.999 -209c-198 0 -367 70 -507 210s-210 309 -210 507c0 200 70.5 369.333 211.5 508s313.5 208 517.5 208zM772 996.999
c-83.333 0 -154.333 -30.667 -213 -92s-88 -135.333 -88 -222s29.5 -160.667 88.5 -222s129.833 -92 212.5 -92c84 0 155.167 30.5 213.5 91.5s87.5 135.167 87.5 222.5s-29.167 161.5 -87.5 222.5s-129.5 91.5 -213.5 91.5z" />
    <glyph glyph-name="P" unicode="P" horiz-adv-x="1151" 
d="M581 472l-0.000976562 358c82 0 123 31.333 123 94c0 57.333 -31.333 86 -94 86c-63.333 0 -95 -39.333 -95 -118v-892h-406v850c0 88 8.83301 160.167 26.5 216.5s47.834 108.833 90.501 157.5c48 54 108 96.667 180 128s146.333 47 223 47
c138.667 0 255.167 -46.667 349.5 -140s141.5 -209 141.5 -347c0 -134 -42.333 -242.667 -127 -326c-77.333 -76.667 -194 -115 -350 -115z" />
    <glyph glyph-name="Q" unicode="Q" horiz-adv-x="1541" 
d="M577 -126l0.000976562 119c-158.667 44 -285.5 129 -380.5 255s-142.5 272 -142.5 438c0 219.333 82.667 399 248 539c137.333 116 293.666 174 468.999 174c226 0 408.333 -81.667 547 -245c112 -132 168 -284.333 168 -457c0 -169.333 -49.667 -321 -149 -455
c-89.333 -121.333 -214 -204.333 -374 -249v-119h-386zM591.001 576h358.999v-153c80 68.667 120 155.667 120 261c0 84.667 -29.667 158 -89 220s-129.333 93 -210 93c-81.333 0 -151.666 -31 -210.999 -93s-89 -135.333 -89 -220c0 -108 40 -195 120 -261v153z" />
    <glyph glyph-name="R" unicode="R" horiz-adv-x="1225" 
d="M543 998v-998h-406v1365h521c158.667 0 281.667 -39.333 369 -118c97.333 -88 146 -199.667 146 -335c0 -138 -60.333 -254.333 -181 -349l234 -563h-426l-197 440v351h32c85.333 0 128 36.667 128 110c0 64.667 -49.333 97 -148 97h-72z" />
    <glyph glyph-name="S" unicode="S" horiz-adv-x="847" 
d="M778 1371v-389.001c-29.333 10 -52 15 -68 15c-30.667 0 -57 -11.333 -79 -34s-33 -50 -33 -82c0 -27.333 12 -62 36 -104l31 -54c56 -97.333 84 -191.333 84 -282c0 -132.667 -47.167 -245 -141.5 -337s-209.5 -138 -345.5 -138c-65.333 0 -130 15 -194 45v395
c38.667 -24.667 73 -37 103 -37c35.333 0 64.833 10.167 88.5 30.5s35.5 45.833 35.5 76.5c0 20 -19 63.667 -57 131c-60.667 106.667 -91 213.334 -91 320.001c0 128.667 45.833 239.5 137.5 332.5s201.167 139.5 328.5 139.5c56 0 111 -9.33301 165 -28z" />
    <glyph glyph-name="T" unicode="T" horiz-adv-x="1054" 
d="M731 973v-973h-406v973h-311v392h1027v-392h-310z" />
    <glyph glyph-name="U" unicode="U" horiz-adv-x="1206" 
d="M1096 1365v-885c0 -156 -46.5 -280.667 -139.5 -374s-216.833 -140 -371.5 -140c-154 0 -271.833 45.333 -353.5 136s-122.5 221 -122.5 391v872h406v-871c0 -83.333 29.667 -125 89 -125c57.333 0 86 41.667 86 125v871h406z" />
    <glyph glyph-name="V" unicode="V" horiz-adv-x="1070" 
d="M1118 1365l-595 -1443l-591 1443h470l125 -426l138 426h453z" />
    <glyph glyph-name="W" unicode="W" horiz-adv-x="1663" 
d="M1554 1365l0.000976562 -982.998c0 -122.667 -37 -222.667 -111 -300s-169.667 -116 -287 -116c-141.333 0 -249.333 64.333 -324 193c-46 -69.333 -95.333 -118.833 -148 -148.5s-117.667 -44.5 -195 -44.5c-122.667 0 -216.667 38.667 -282 116
s-98 188.666 -98 333.999v949h406v-888c0 -44 3.5 -73 10.5 -87s21.167 -21 42.5 -21c40 0 60 33.667 60 101v895h406v-888c0 -42.667 3.66699 -71.334 11 -86.001s21.666 -22 42.999 -22c40 0 60 36 60 108v888h406z" />
    <glyph glyph-name="X" unicode="X" horiz-adv-x="1020" 
d="M1077 1365l-355 -664l367 -701h-427l-168 331l-142 -331h-420l375 690l-355 675h423l159 -310l128 310h415z" />
    <glyph glyph-name="Y" unicode="Y" horiz-adv-x="1030" 
d="M1099 1365l-386 -607v-758h-406v758l-389 607h412l176 -281l189 281h404z" />
    <glyph glyph-name="Z" unicode="Z" horiz-adv-x="1059" 
d="M1059 1365l-424 -973h419v-392h-1030l422 973h-446v392h1059z" />
    <glyph glyph-name="bracketleft" unicode="[" horiz-adv-x="751" 
d="M410 1119v-1132h250v-246h-569v1624h569v-246h-250z" />
    <glyph glyph-name="backslash" unicode="\" horiz-adv-x="710" 
d="M96 1365h183l372 -1624h-182z" />
    <glyph glyph-name="bracketright" unicode="]" horiz-adv-x="751" 
d="M340 -13v1132h-249v246h568v-1624h-568v246h249z" />
    <glyph glyph-name="asciicircum" unicode="^" 
d="M338 698h-320l292 677h404l293 -677h-320l-174 430z" />
    <glyph glyph-name="underscore" unicode="_" 
d="M0 -104h1024v-214h-1024v214z" />
    <glyph glyph-name="grave" unicode="`" 
d="M457 1329l211 -232h-211l-237 232h237z" />
    <glyph glyph-name="a" unicode="a" horiz-adv-x="1204" 
d="M663 374v-387.003c-30.667 -5.33301 -58.667 -8 -84 -8c-150 0 -275 49.333 -375 148s-150 222.334 -150 371.001c0 144.667 50.5 267.334 151.5 368.001s223.833 151 368.5 151c161.333 0 288.5 -47.167 381.5 -141.5s139.5 -223.166 139.5 -386.499v-489h-374v462
c0 52.667 -12.833 94.667 -38.5 126s-60.167 47 -103.5 47c-39.333 0 -73.333 -14.333 -102 -43s-43 -62.667 -43 -102c0 -41.333 13 -75.333 39 -102s59 -40 99 -40c32.667 0 63 8.66699 91 26z" />
    <glyph glyph-name="b" unicode="b" horiz-adv-x="1185" 
d="M461 1365v-817.001c0 -132.667 47.667 -199 143 -199c40.667 0 75.167 13.833 103.5 41.5s42.5 61.167 42.5 100.5c0 40.667 -13.333 74.834 -40 102.501s-59.334 41.5 -98.001 41.5c-27.333 0 -58.666 -12 -93.999 -36v412c44 4 77.333 6 100 6
c140.667 0 261.167 -50.667 361.5 -152s150.5 -223.333 150.5 -366c0 -146 -51 -269 -153 -369s-227.333 -150 -376 -150c-74.667 0 -147.5 16.333 -218.5 49s-129.5 76.667 -175.5 132c-80 96 -120 220.333 -120 373v831h374z" />
    <glyph glyph-name="c" unicode="c" horiz-adv-x="1146" 
d="M721 459l371.003 13.999c-10.667 -144 -64.334 -262.333 -161.001 -355s-214.334 -139 -353.001 -139c-146.667 0 -270.5 51 -371.5 153s-151.5 227 -151.5 375c0 140.667 51 261 153 361s224.333 150 367 150c124.667 0 234.667 -39.333 330 -118
s154.666 -179 177.999 -301l-379 -14c-32.667 42.667 -74 64 -124 64c-42.667 0 -77.667 -14 -105 -42s-41 -63.333 -41 -106c0 -43.333 14.5 -79.666 43.5 -108.999s65.167 -44 108.5 -44c63.333 0 108.333 37 135 111z" />
    <glyph glyph-name="d" unicode="d" horiz-adv-x="1185" 
d="M723 1365h374.002v-831c0 -152.667 -40 -277 -120 -373c-46 -55.333 -104.5 -99.333 -175.5 -132s-143.833 -49 -218.5 -49c-148.667 0 -274 50 -376 150s-153 222.667 -153 368c0 140.667 50.667 262.334 152 365.001s221.333 154 360 154c22 0 55.333 -2 100 -6v-412
c-30.667 24 -61.334 36 -92.001 36c-38.667 0 -71.834 -14.167 -99.501 -42.5s-41.5 -62.5 -41.5 -102.5c0 -38.667 14.333 -71.834 43 -99.501s63 -41.5 103 -41.5c96 0 144 66.333 144 199v817z" />
    <glyph glyph-name="e" unicode="e" horiz-adv-x="1135" 
d="M1089 438h-567.001c-8.66699 28.667 -13 55 -13 79c0 33.333 6 66 18 98h190c-13.333 74 -55 111 -125 111c-46.667 0 -84.667 -19.833 -114 -59.5s-44 -90.5 -44 -152.5c0 -64.667 14.167 -117 42.5 -157s65.5 -60 111.5 -60c37.333 0 73.333 18.667 108 56l213 -256
c-99.333 -78 -209.666 -117 -330.999 -117c-148 0 -272.333 49.667 -373 149s-151 222.333 -151 369c0 146 50.833 269.333 152.5 370s226.5 151 374.5 151c144.667 0 266.167 -49.167 364.5 -147.5s147.5 -219.5 147.5 -363.5c0 -14.667 -1.33301 -38 -4 -70z" />
    <glyph glyph-name="f" unicode="f" horiz-adv-x="705" 
d="M650 776l0.00195312 -391.999h-167v-384h-374v847c0 95.333 16.333 176.666 49 243.999c41.333 86 104.166 156.167 188.499 210.5s172.166 81.5 263.499 81.5l40 -1v-392c-8.66699 0.666992 -15 1 -19 1c-47.333 0 -83.833 -15.667 -109.5 -47s-38.5 -76 -38.5 -134v-34
h167z" />
    <glyph glyph-name="g" unicode="g" horiz-adv-x="1181" 
d="M641 411v-343c-54 -20 -105.667 -30 -155 -30c-120.667 0 -222.834 45.667 -306.501 137s-125.5 203 -125.5 335c0 142.667 50.333 263 151 361s224.334 147 371.001 147c78 0 152.667 -15.667 224 -47s127.333 -73.333 168 -126c68 -87.333 102 -214 102 -380v-328
c0 -178 -50.5 -322.5 -151.5 -433.5s-232.5 -166.5 -394.5 -166.5c-49.333 0 -111.666 12.333 -186.999 37v340c48.667 -26.667 98 -40 148 -40c67.333 0 119.333 22.167 156 66.5s55 107.833 55 190.5v375c0 104.667 -42.333 157 -127 157c-36 0 -67.5 -13.833 -94.5 -41.5
s-40.5 -59.5 -40.5 -95.5c0 -38 12.833 -69.667 38.5 -95s57.5 -38 95.5 -38c25.333 0 49.666 6 72.999 18z" />
    <glyph glyph-name="h" unicode="h" horiz-adv-x="1095" 
d="M483 1365l0.000976562 -417.001c63.333 46 126.666 69 189.999 69c96 0 172.167 -34.667 228.5 -104s84.5 -163 84.5 -281v-632h-374v527c0 42.667 -4.5 71.334 -13.5 86.001s-26.5 22 -52.5 22c-42 0 -63 -31 -63 -93v-542h-374v1365h374z" />
    <glyph glyph-name="i" unicode="i" horiz-adv-x="594" 
d="M483 997v-997h-374v997h374zM297 1442c50.667 0 94.5 -17.833 131.5 -53.5s55.5 -77.834 55.5 -126.501c0 -52 -17.5 -94.667 -52.5 -128s-79.833 -50 -134.5 -50s-99.5 16.667 -134.5 50s-52.5 76 -52.5 128c0 48.667 18.5 90.834 55.5 126.501s80.833 53.5 131.5 53.5z
" />
    <glyph glyph-name="j" unicode="j" horiz-adv-x="728" 
d="M244 997h374v-842c0 -176 -41.667 -316 -125 -420c-106 -132 -252 -198 -438 -198c-56.667 0 -120.667 12 -192 36v353c62.667 -29.333 115.667 -44 159 -44c148 0 222 109 222 327v788zM420 1442c50.667 0 94.5 -17.833 131.5 -53.5s55.5 -77.834 55.5 -126.501
c0 -52 -17.5 -94.667 -52.5 -128s-79.833 -50 -134.5 -50s-99.5 16.667 -134.5 50s-52.5 76 -52.5 128c0 48.667 18.5 90.834 55.5 126.501s80.833 53.5 131.5 53.5z" />
    <glyph glyph-name="k" unicode="k" horiz-adv-x="1104" 
d="M483 1365v-1365h-374v1365h374zM1056 997l-183 -363l272 -634h-414l-234 651l170 346h389z" />
    <glyph glyph-name="l" unicode="l" horiz-adv-x="593" 
d="M483 1365v-1365h-374v1365h374z" />
    <glyph glyph-name="m" unicode="m" horiz-adv-x="1587" 
d="M1477 0h-373.998v538c0 41.333 -4.33301 70 -13 86s-24.334 24 -47.001 24c-42 0 -63 -37 -63 -111v-537h-374v538c0 41.333 -4.5 70 -13.5 86s-24.833 24 -47.5 24c-41.333 0 -62 -37 -62 -111v-537h-374v614c0 112 37.667 207.167 113 285.5
s166.666 117.5 273.999 117.5c110.667 0 210 -46.667 298 -140c98 93.333 196 140 294 140c124.667 0 224.667 -45.333 300 -136c59.333 -70.667 89 -173.667 89 -309v-572z" />
    <glyph glyph-name="n" unicode="n" horiz-adv-x="1107" 
d="M998 0h-374v563c0 57.333 -23.667 86 -71 86c-46.667 0 -70 -28.667 -70 -86v-563h-374v556c0 130 43 239.5 129 328.5s191.333 133.5 316 133.5c142.667 0 257 -51.667 343 -155c67.333 -80.667 101 -193 101 -337v-526z" />
    <glyph glyph-name="o" unicode="o" horiz-adv-x="1144" 
d="M582 1018c141.333 0 262.5 -50.833 363.5 -152.5s151.5 -223.5 151.5 -365.5c0 -144 -51.167 -266.667 -153.5 -368s-225.833 -152 -370.5 -152s-268.334 50.833 -371.001 152.5s-154 224.167 -154 367.5c0 146 51.333 268.833 154 368.5s229.334 149.5 380.001 149.5z
M572 649c-40 0 -73.999 -14.5 -101.999 -43.5s-42 -64.5 -42 -106.5c0 -41.333 14.167 -76.666 42.5 -105.999s62.166 -44 101.499 -44c40 0 74.167 14.667 102.5 44s42.5 64.666 42.5 105.999c0 42 -14 77.5 -42 106.5s-62.333 43.5 -103 43.5z" />
    <glyph glyph-name="p" unicode="p" horiz-adv-x="1185" 
d="M461 -369h-374.002v832c0 152.667 40 277 120 373c46 55.333 104.5 99.333 175.5 132s143.833 49 218.5 49c148.667 0 274 -50 376 -150s153 -222.667 153 -368c0 -141.333 -50.667 -263.333 -152 -366s-221.333 -154 -360 -154c-22.667 0 -56 2.33301 -100 7v412
c30.667 -24.667 61.334 -37 92.001 -37c38.667 0 71.834 14.333 99.501 43s41.5 62.667 41.5 102s-14.333 72.833 -43 100.5s-63 41.5 -103 41.5c-96 0 -144 -66.333 -144 -199v-818z" />
    <glyph glyph-name="q" unicode="q" horiz-adv-x="1185" 
d="M723 -369l-0.000976562 818c0 132.667 -48.333 199 -145 199c-39.333 0 -73.333 -13.833 -102 -41.5s-43 -61.167 -43 -100.5s13.833 -73.333 41.5 -102s60.834 -43 99.501 -43c30 0 60.667 12.333 92 37v-412c-44 -4.66699 -77.333 -7 -100 -7
c-138.667 0 -258.667 51.333 -360 154s-152 224.667 -152 366c0 145.333 51 268 153 368s227.333 150 376 150c74.667 0 147.5 -16.333 218.5 -49s129.5 -76.667 175.5 -132c80 -96 120 -220.333 120 -373v-832h-374z" />
    <glyph glyph-name="r" unicode="r" horiz-adv-x="657" 
d="M656 1007v-400c-26 14.667 -49.667 22 -71 22c-68 0 -102 -52 -102 -156v-473h-374v545c0 144 39.333 258.833 118 344.5s183.667 128.5 315 128.5c29.333 0 67.333 -3.66699 114 -11z" />
    <glyph glyph-name="s" unicode="s" horiz-adv-x="747" 
d="M734 983l0.000976562 -394c-52.667 0 -88.834 -9.83301 -108.501 -29.5s-32.167 -58.5 -37.5 -116.5c-17.333 -192.667 -92 -328.667 -224 -408c-70 -41.333 -169.333 -62 -298 -62h-52v396h17c60 0 102.833 12.5 128.5 37.5s40.5 68.833 44.5 131.5
c5.33301 102 14.833 173.667 28.5 215s41.5 82.333 83.5 123c73.333 71.333 175 107 305 107h113z" />
    <glyph glyph-name="t" unicode="t" horiz-adv-x="685" 
d="M442 1365l-0.000976562 -381.999h168v-395h-168c0 -79.333 12.5 -134 37.5 -164s70.833 -45 137.5 -45v-393c-19.333 -0.666992 -33.666 -1 -42.999 -1c-84.667 0 -164.5 19.667 -239.5 59s-135.167 92.666 -180.5 159.999c-57.333 86 -86 200 -86 342v819h374z" />
    <glyph glyph-name="u" unicode="u" horiz-adv-x="1107" 
d="M109 983h374v-563c0 -56.667 23.667 -85 71 -85c46.667 0 70 28.333 70 85v563h374v-556c0 -129.333 -43 -238.5 -129 -327.5s-191.333 -133.5 -316 -133.5c-142 0 -256.333 51.667 -343 155c-67.333 80.667 -101 192.667 -101 336v526z" />
    <glyph glyph-name="v" unicode="v" horiz-adv-x="789" 
d="M858 997l-466 -1036l-460 1036h357l106 -269l116 269h347z" />
    <glyph glyph-name="w" unicode="w" horiz-adv-x="1587" 
d="M109 983h373.998v-537c0 -42 4.33301 -71.167 13 -87.5s24.334 -24.5 47.001 -24.5c42 0 63 37.333 63 112v537h374v-537c0 -42 4.5 -71.167 13.5 -87.5s24.833 -24.5 47.5 -24.5c41.333 0 62 37.333 62 112v537h374v-614c0 -112 -37.667 -207.167 -113 -285.5
s-166.666 -117.5 -273.999 -117.5c-110.667 0 -210 46.667 -298 140c-97.333 -93.333 -195.333 -140 -294 -140c-124.667 0 -224.667 45.333 -300 136c-59.333 71.333 -89 174.333 -89 309v572z" />
    <glyph glyph-name="x" unicode="x" horiz-adv-x="1081" 
d="M612 997h374v-219c0 -62.667 -9.16699 -113.167 -27.5 -151.5s-49.833 -72.166 -94.5 -101.499c45.333 -30.667 77 -64.334 95 -101.001s27 -84.667 27 -144v-280h-374v301c0 68.667 -24 103 -72 103c-46.667 0 -70 -29.667 -70 -89v-315h-374v266
c0 61.333 11.167 111.333 33.5 150s61.166 75 116.499 109c-55.333 36 -94.166 74 -116.499 114s-33.5 91 -33.5 153v205h374v-252c0 -26 6.66699 -47.333 20 -64s30.333 -25 51 -25c47.333 0 71 29.667 71 89v252z" />
    <glyph glyph-name="y" unicode="y" horiz-adv-x="1098" 
d="M238 -437v325c50.667 -21.333 95 -32 133 -32c121.333 0 200 68.333 236 205c-65.333 -38.667 -129.333 -58 -192 -58c-92.667 0 -169 34.5 -229 103.5s-90 156.833 -90 263.5v627h374v-536c0 -59.333 24.667 -89 74 -89c47.333 0 71 32.667 71 98v527h374v-890
c0 -166 -46.667 -300 -140 -402c-111.333 -121.333 -246 -182 -404 -182c-69.333 0 -138.333 13.333 -207 40z" />
    <glyph glyph-name="z" unicode="z" horiz-adv-x="1014" 
d="M941 997l-306 -605h352v-392h-961l304 607h-316v390h927z" />
    <glyph glyph-name="braceleft" unicode="{" horiz-adv-x="751" 
d="M378 553c43.333 -28.667 73.167 -60.1631 89.5 -94.4961s24.5 -83.166 24.5 -146.499v-205v-22c0 -47.333 9.16699 -77 27.5 -89s62.5 -18 132.5 -18h29v-247c-22.667 0 -44.334 -0.333008 -65.001 -1l-115 -6l-71 3c-94 6 -160.333 29.5 -199 70.5s-58 108.5 -58 202.5
v269c0 52 -7.83301 90.333 -23.5 115s-42.5 40.667 -80.5 48v262c58.667 11.333 91 39.666 97 84.999l6 45c0.666992 7.33301 1 11.666 1 12.999v267c0 103.333 22.833 175.166 68.5 215.499s126.834 60.5 243.501 60.5l57 -1l74 -3l65 -2v-253l-44 1
c-61.333 0 -100.833 -6.5 -118.5 -19.5s-26.5 -42.167 -26.5 -87.5v-23v-198c0 -64.667 -7.5 -112.834 -22.5 -144.501s-45.5 -63.834 -91.5 -96.501z" />
    <glyph glyph-name="bar" unicode="|" 
d="M328 1365h368v-1706h-368v1706z" />
    <glyph glyph-name="braceright" unicode="}" horiz-adv-x="751" 
d="M372 551c-43.333 28 -73.166 59.166 -89.499 93.499s-24.5 83.166 -24.5 146.499v206v22c0 47.333 -9.16699 77 -27.5 89s-62.5 18 -132.5 18l-29 -1v247c22 0 43.333 0.666992 64 2l116 6l71 -3c171.333 0 257 -91.333 257 -274v-269
c0 -51.333 7.83301 -89.333 23.5 -114s42.5 -40.667 80.5 -48v-262c-58.667 -12 -91 -40.667 -97 -86l-5 -44c-1.33301 -8 -2 -12.667 -2 -14v-267c0 -103.333 -22.833 -175.166 -68.5 -215.499s-126.834 -60.5 -243.501 -60.5l-57 1l-75 3l-64 2v253l44 -1
c61.333 0 100.833 6.66699 118.5 20s26.5 42.333 26.5 87v23v198c0 65.333 7.5 113.833 22.5 145.5s45.5 63.834 91.5 96.501z" />
    <glyph glyph-name="asciitilde" unicode="~" horiz-adv-x="1365" 
d="M364 1108l-175.002 147c78 199.333 184.333 299 319 299c40 0 115 -21.667 225 -65c75.333 -30 123.333 -45 144 -45c46.667 0 90.334 38.333 131.001 115l175 -147c-44 -107.333 -90.333 -183.5 -139 -228.5s-109.667 -67.5 -183 -67.5c-44 0 -120.333 22.333 -229 67
c-67.333 27.333 -113.666 41 -138.999 41c-44.667 0 -87.667 -38.667 -129 -116z" />
    <glyph glyph-name="exclamdown" unicode="&#xa1;" horiz-adv-x="884" 
d="M251 -375l7 847h355l21 -847h-383zM444 1018c68.667 0 125.167 -22.166 169.5 -66.499s66.5 -100.833 66.5 -169.5c0 -66.667 -23 -123.167 -69 -169.5s-101.667 -69.5 -167 -69.5s-121.5 23.667 -168.5 71s-70.5 103.666 -70.5 168.999s23.333 120.833 70 166.5
s103 68.5 169 68.5z" />
    <glyph glyph-name="cent" unicode="&#xa2;" horiz-adv-x="1164" 
d="M908 1082l-0.000976562 -283.001c-30.667 11.333 -57.667 17 -81 17c-44 0 -82.167 -16.667 -114.5 -50s-48.5 -73 -48.5 -119c0 -47.333 16.333 -87.5 49 -120.5s72 -49.5 118 -49.5c22.667 0 48.334 5 77.001 15v-289c-42 -14.667 -75 -24 -99 -28v-175h-343v248
c-140 98.667 -210 229.334 -210 392.001c0 162 70 295 210 399v321h343v-248c38 -7.33301 71 -17.333 99 -30z" />
    <glyph glyph-name="sterling" unicode="&#xa3;" horiz-adv-x="1164" 
d="M990 384v-384.001h-885l122 337l25 66c21.333 58.667 34.666 112.334 39.999 161.001h-90v187h59c-32.667 71.333 -49 142.333 -49 213c0 116.667 41.5 217.167 124.5 301.5s182.167 126.5 297.5 126.5c117.333 0 217.5 -39.833 300.5 -119.5s124.5 -175.5 124.5 -287.5
l-1 -44h-331v11l-1 18c-2.66699 43.333 -26 65 -70 65c-22 0 -40.833 -9.33301 -56.5 -28s-23.5 -41.334 -23.5 -68.001c0 -25.333 9 -58.666 27 -99.999c14.667 -34 26.334 -63.333 35.001 -88h209v-187h-203c-2 -42 -14.667 -102 -38 -180h384z" />
    <glyph glyph-name="currency" unicode="&#xa4;" horiz-adv-x="1498" 
d="M59 220l216 215.001c-42.667 82.667 -64 169.667 -64 261c0 83.333 24 170.666 72 261.999l-222 220l206 206l226 -226c88.667 42.667 174 64 256 64c83.333 0 168 -20.667 254 -62l223 221l204 -204l-216 -216c50.667 -88 76 -177 76 -267c0 -86 -21.667 -172 -65 -258
l215 -215l-203 -206l-214 214c-88 -50 -180.667 -75 -278 -75c-84.667 0 -174 24.667 -268 74l-214 -211zM751 885.001c-52.667 0 -97.5 -18.5 -134.5 -55.5s-55.5 -81.833 -55.5 -134.5c0 -53.333 18.5 -98.833 55.5 -136.5s81.833 -56.5 134.5 -56.5
c53.333 0 98.5 18.833 135.5 56.5s55.5 83.167 55.5 136.5c0 52.667 -18.667 97.5 -56 134.5s-82.333 55.5 -135 55.5z" />
    <glyph glyph-name="yen" unicode="&#xa5;" horiz-adv-x="1164" 
d="M1132 1365l-294 -512h113v-191h-164v-82h164v-191h-164v-389h-406v389h-163v191h163v82h-163v191h110l-295 512h412l135 -281l148 281h404z" />
    <glyph glyph-name="brokenbar" unicode="&#xa6;" 
d="M328 1365h368v-734h-368v734zM328 314h368v-655h-368v655z" />
    <glyph glyph-name="section" unicode="&#xa7;" horiz-adv-x="1051" 
d="M61 -84l202.999 217.999c64 -58 112.333 -96.833 145 -116.5s65.334 -29.5 98.001 -29.5c23.333 0 44 5.83301 62 17.5s26.667 24.834 26 39.501c-2 26 -33.333 52 -94 78c-164 69.333 -275.5 133.666 -334.5 192.999s-88.5 136.666 -88.5 231.999
c0 122 56.667 218.333 170 289c-86.667 70 -130 146.667 -130 230c0 94.667 39.833 173.667 119.5 237s179.167 95 298.5 95c155.333 0 293.333 -58.333 414 -175l-177 -203c-76.667 64.667 -147 97 -211 97c-49.333 0 -74 -18.333 -74 -55c0 -24 21 -44 63 -60l53 -21
c141.333 -54.667 241.166 -113.167 299.499 -175.5s87.5 -141.166 87.5 -236.499c0 -116 -49.667 -211.333 -149 -286c81.333 -69.333 122 -150.333 122 -243c0 -101.333 -41.167 -184.666 -123.5 -249.999s-187.166 -98 -314.499 -98c-176.667 0 -331.667 74.333 -465 223z
M536.999 640.999c-21.333 0 -39.5 -7.33301 -54.5 -22s-22.5 -32.334 -22.5 -53.001c0 -21.333 7.5 -39.333 22.5 -54s33.167 -22 54.5 -22s39.5 7.33301 54.5 22s22.5 32.667 22.5 54c0 20.667 -7.5 38.334 -22.5 53.001s-33.167 22 -54.5 22z" />
    <glyph glyph-name="dieresis" unicode="&#xa8;" 
d="M260 1439c54.667 0 100.333 -16.499 137 -49.499s55 -74.5 55 -124.5c0 -49.333 -19.333 -92.5 -58 -129.5s-84 -55.5 -136 -55.5c-49.333 0 -92.5 18.5 -129.5 55.5s-55.5 80.167 -55.5 129.5c0 47.333 18.5 88.166 55.5 122.499s80.833 51.5 131.5 51.5zM759.999 1437
c54.667 0 100.333 -16.499 137 -49.499s55 -74.5 55 -124.5c0 -49.333 -19.333 -92.5 -58 -129.5s-84 -55.5 -136 -55.5c-49.333 0 -92.5 18.5 -129.5 55.5s-55.5 80.167 -55.5 129.5c0 47.333 18.5 88.166 55.5 122.499s80.833 51.5 131.5 51.5z" />
    <glyph glyph-name="copyright" unicode="&#xa9;" horiz-adv-x="1533" 
d="M929 663l253 -7.00293c-16 -119.333 -60.167 -211.666 -132.5 -276.999s-166.833 -98 -283.5 -98c-120 0 -219.667 39 -299 117s-119 176 -119 294c0 111.333 41 206.5 123 285.5s180.333 118.5 295 118.5c108.667 0 198.5 -28.167 269.5 -84.5
s119.5 -138.166 145.5 -245.499l-259 -16c-27.333 74.667 -79 112 -155 112c-50 0 -91 -16.5 -123 -49.5s-48 -75.167 -48 -126.5c0 -49.333 15.667 -90.166 47 -122.499s71.333 -48.5 120 -48.5c100 0 155.333 49.333 166 148zM778 1399c192 0 357.5 -70.667 496.5 -212
s208.5 -309.333 208.5 -504c0 -198 -70 -367 -210 -507s-309 -210 -507 -210s-367 70 -507 210s-210 309 -210 507c0 200 70.5 369.333 211.5 508s313.5 208 517.5 208zM776 1285c-170.667 0 -315.334 -58.333 -434.001 -175s-178 -259 -178 -427
c0 -166 58.833 -307.833 176.5 -425.5s259.5 -176.5 425.5 -176.5c166.667 0 308.834 58.833 426.501 176.5s176.5 259.5 176.5 425.5c0 164 -58.5 305.333 -175.5 424s-256.167 178 -417.5 178z" />
    <glyph glyph-name="ordfeminine" unicode="&#xaa;" horiz-adv-x="781" 
d="M418 1014v-235c-17.333 -2.66699 -32 -4 -44 -4c-92.667 0 -170.334 29.833 -233.001 89.5s-94 133.834 -94 222.501c0 87.333 31.667 161.166 95 221.499s140.333 90.5 231 90.5c100.667 0 180.167 -28.5 238.5 -85.5s87.5 -134.167 87.5 -231.5v-295h-239v279
c0 66 -28 99 -84 99c-23.333 0 -43.666 -8.16699 -60.999 -24.5s-26 -35.833 -26 -58.5c0 -22 7.66699 -40.833 23 -56.5s34 -23.5 56 -23.5c18 0 34.667 4 50 12zM715 706v-129h-623v129h623z" />
    <glyph glyph-name="guillemotleft" unicode="&#xab;" horiz-adv-x="763" 
d="M493 146l-145 332l145 350h188l-143 -350l143 -332h-188zM223 146l-141 332l141 350h192l-143 -350l143 -332h-192z" />
    <glyph glyph-name="logicalnot" unicode="&#xac;" 
d="M599 0v286h-531v320h887v-606h-356z" />
    <glyph glyph-name="registered" unicode="&#xae;" horiz-adv-x="1533" 
d="M688 863v-563h-242v777h305c90.667 0 163.667 -23.667 219 -71s83 -110 83 -188c0 -79.333 -34.333 -145.333 -103 -198l136 -320h-241l-115 251v202h15c42 0 63 19.333 63 58c0 34.667 -27 52 -81 52h-39zM778 1399c192 0 357.5 -70.667 496.5 -212
s208.5 -309.333 208.5 -504c0 -198 -70 -367 -210 -507s-309 -210 -507 -210s-367 70 -507 210s-210 309 -210 507c0 200 70.5 369.333 211.5 508s313.5 208 517.5 208zM776 1285c-170.667 0 -315.334 -58.333 -434.001 -175s-178 -259 -178 -427
c0 -166 58.833 -307.833 176.5 -425.5s259.5 -176.5 425.5 -176.5c166.667 0 308.834 58.833 426.501 176.5s176.5 259.5 176.5 425.5c0 164 -58.5 305.333 -175.5 424s-256.167 178 -417.5 178z" />
    <glyph glyph-name="degree" unicode="&#xb0;" horiz-adv-x="804" 
d="M401 1399c99.333 0 182.833 -34.332 250.5 -102.999s101.5 -153.334 101.5 -254.001c0 -96 -34.5 -177.833 -103.5 -245.5s-152.833 -101.5 -251.5 -101.5c-94.667 0 -176.167 34.5 -244.5 103.5s-102.5 151.167 -102.5 246.5c0 98 34.167 181.5 102.5 250.5
s150.833 103.5 247.5 103.5zM402 1239c-50.667 0 -94.333 -19 -131 -57s-55 -83 -55 -135c0 -51.333 18.167 -96 54.5 -134s78.833 -57 127.5 -57c52 0 96.667 18.5 134 55.5s56 81.5 56 133.5c0 52.667 -18.5 98.167 -55.5 136.5s-80.5 57.5 -130.5 57.5z" />
    <glyph glyph-name="plusminus" unicode="&#xb1;" horiz-adv-x="1533" 
d="M621 699h-366v282h366v384h290v-384h366v-282h-366v-329h-290v329zM255 270h1022v-270h-1022v270z" />
    <glyph glyph-name="twosuperior" unicode="&#xb2;" horiz-adv-x="763" 
d="M671 783l-0.000976562 -236.998h-529l271 509c7.33301 13.333 11 25 11 35c0 35.333 -19 53 -57 53c-14.667 0 -27.5 -5.5 -38.5 -16.5s-16.5 -23.833 -16.5 -38.5c0 -16.667 7.33301 -32 22 -46l-105 -186c-91.333 56 -137 136.333 -137 241
c0 79.333 27.833 147.166 83.5 203.499s122.834 84.5 201.501 84.5c76 0 142.5 -28.333 199.5 -85s85.5 -123 85.5 -199c0 -46.667 -9 -87.334 -27 -122.001l-101 -196h137z" />
    <glyph glyph-name="threesuperior" unicode="&#xb3;" horiz-adv-x="763" 
d="M164 1365l434 -0.000976562l-134 -314c91.333 -61.333 137 -143.333 137 -246c0 -77.333 -29.167 -143.166 -87.5 -197.499s-129.166 -81.5 -212.499 -81.5c-47.333 0 -94 8.66699 -140 26v232c32.667 -21.333 62.667 -32 90 -32s50.666 10.167 69.999 30.5
s29 44.833 29 73.5c0 74 -52 111 -156 111l61 162h-91v236z" />
    <glyph glyph-name="acute" unicode="&#xb4;" 
d="M567 1329h237l-237 -232h-211z" />
    <glyph glyph-name="mu" unicode="&#xb5;" 
d="M48 -352v1335h308v-498c0 -75.333 8 -128.333 24 -159c30 -58 75.667 -87 137 -87c101.333 0 152 83.333 152 250v494h308v-983h-308v118c-34 -90.667 -87 -136 -159 -136c-64.667 0 -116 37.667 -154 113v-447h-308z" />
    <glyph glyph-name="paragraph" unicode="&#xb6;" horiz-adv-x="1533" 
d="M680 -259v1113c0 120 -43.333 180 -130 180c-36 0 -66.833 -12.5 -92.5 -37.5s-38.5 -54.833 -38.5 -89.5c0 -36 12.5 -66.833 37.5 -92.5s54.833 -38.5 89.5 -38.5c27.333 0 55 10.667 83 32v-370c-40 -4 -70 -6 -90 -6c-125.333 0 -233.5 46.167 -324.5 138.5
s-136.5 201.833 -136.5 328.5c0 130.667 46 241 138 331s205 135 339 135h150h476v-1624h-191v1310h-112v-1310h-198z" />
    <glyph glyph-name="cedilla" unicode="&#xb8;" 
d="M659 10c-17.333 -132.667 -97.333 -229.667 -240 -291l-135 136c36.667 48 55 91.333 55 130c0 6 -0.333008 14.333 -1 25h321z" />
    <glyph glyph-name="onesuperior" unicode="&#xb9;" horiz-adv-x="763" 
d="M497 1365v-819h-232v819h232z" />
    <glyph glyph-name="ordmasculine" unicode="&#xba;" horiz-adv-x="744" 
d="M371 1399c92 0 169.833 -30.167 233.5 -90.5s95.5 -133.833 95.5 -220.5c0 -86 -32 -159.5 -96 -220.5s-141.667 -91.5 -233 -91.5c-90 0 -167.167 30.5 -231.5 91.5s-96.5 134.5 -96.5 220.5c0 86.667 31.833 160.167 95.5 220.5s141.167 90.5 232.5 90.5zM371 1173
c-24 0 -44.333 -8.33301 -61 -25s-25 -36.667 -25 -60c0 -24 8.5 -44.333 25.5 -61s37.167 -25 60.5 -25c24 0 44.5 8.33301 61.5 25s25.5 37 25.5 61c0 23.333 -8.5 43.333 -25.5 60s-37.5 25 -61.5 25zM697 706v-129h-624v129h624z" />
    <glyph glyph-name="guillemotright" unicode="&#xbb;" horiz-adv-x="763" 
d="M270 828l145 -332l-145 -350h-188l143 350l-143 332h188zM540 828l141 -332l-141 -350h-192l143 350l-143 332h192z" />
    <glyph glyph-name="onequarter" unicode="&#xbc;" horiz-adv-x="1775" 
d="M497 1365v-819h-232v819h232zM1245 1365l-552 -1365h-163l555 1365h160zM1695 819v-819h-231v625l-103 -203h51v-178h-320l243 575h360z" />
    <glyph glyph-name="onehalf" unicode="&#xbd;" horiz-adv-x="1775" 
d="M497 1365v-819h-232v819h232zM1245 1365l-552 -1365h-163l555 1365h160zM1683 237l-0.000976562 -236.999h-529l271 509c7.33301 13.333 11 25 11 35c0 36 -19 54 -57 54c-14.667 0 -27.5 -5.5 -38.5 -16.5s-16.5 -23.833 -16.5 -38.5
c0 -17.333 7.33301 -32.666 22 -45.999l-105 -187c-91.333 56 -137 136.333 -137 241c0 80 27.833 148.167 83.5 204.5s122.834 84.5 201.501 84.5c76 0 142.5 -28.333 199.5 -85s85.5 -123.334 85.5 -200.001c0 -46.667 -9 -87.334 -27 -122.001l-101 -196h137z" />
    <glyph glyph-name="threequarters" unicode="&#xbe;" horiz-adv-x="1775" 
d="M164 1365l434 -0.000976562l-134 -314c91.333 -61.333 137 -143.333 137 -246c0 -77.333 -29.167 -143.166 -87.5 -197.499s-129.166 -81.5 -212.499 -81.5c-47.333 0 -94 8.66699 -140 26v232c32.667 -21.333 62.667 -32 90 -32s50.666 10.167 69.999 30.5
s29 44.833 29 73.5c0 74 -52 111 -156 111l61 162h-91v236zM1245 1365l-552 -1365h-163l555 1365h160zM1695 818.999v-819h-231v625l-102 -203h50v-178h-320l243 575h360z" />
    <glyph glyph-name="questiondown" unicode="&#xbf;" horiz-adv-x="1087" 
d="M366 489l371 -0.000976562v-63c0 -83.333 -9.33301 -144.833 -28 -184.5s-53 -70.5 -103 -92.5l-67 -29c-51.333 -22.667 -77 -55 -77 -97c0 -24 8.33301 -44.333 25 -61s37 -25 61 -25c65.333 0 98 45.333 98 136h345c0 -121.333 -27.667 -220.333 -83 -297
c-42 -57.333 -96 -102.666 -162 -135.999s-134.333 -50 -205 -50c-125.333 0 -230.833 41.667 -316.5 125s-128.5 186 -128.5 308c0 152 61.333 258.667 184 320c40 20 64.333 37.333 73 52s13 46 13 94zM545 1018c68.667 0 125.167 -22.166 169.5 -66.499
s66.5 -100.833 66.5 -169.5c0 -66.667 -23 -123.167 -69 -169.5s-101.667 -69.5 -167 -69.5s-121.5 23.667 -168.5 71s-70.5 103.666 -70.5 168.999s23.333 120.833 70 166.5s103 68.5 169 68.5z" />
    <glyph glyph-name="Agrave" unicode="&#xc0;" horiz-adv-x="1212" 
d="M632 685l0.000976562 -360h-117v-325h-406v868c0 168 45.833 298.5 137.5 391.5s220.5 139.5 386.5 139.5c160 0 278.333 -42.167 355 -126.5s115 -214.5 115 -390.5v-882h-406v855c0 53.333 -6.33301 90.333 -19 111s-35.334 31 -68.001 31
c-63.333 0 -95 -47.333 -95 -142v-170h117zM260.001 1752h279l249 -273h-249z" />
    <glyph glyph-name="Aacute" unicode="&#xc1;" horiz-adv-x="1212" 
d="M632 685l0.000976562 -360h-117v-325h-406v868c0 168 45.833 298.5 137.5 391.5s220.5 139.5 386.5 139.5c160 0 278.333 -42.167 355 -126.5s115 -214.5 115 -390.5v-882h-406v855c0 53.333 -6.33301 90.333 -19 111s-35.334 31 -68.001 31
c-63.333 0 -95 -47.333 -95 -142v-170h117zM993.001 1751l-279 -273h-249l249 273h279z" />
    <glyph glyph-name="Acircumflex" unicode="&#xc2;" horiz-adv-x="1212" 
d="M632 685l0.000976562 -360h-117v-325h-406v868c0 168 45.833 298.5 137.5 391.5s220.5 139.5 386.5 139.5c160 0 278.333 -42.167 355 -126.5s115 -214.5 115 -390.5v-882h-406v855c0 53.333 -6.33301 90.333 -19 111s-35.334 31 -68.001 31
c-63.333 0 -95 -47.333 -95 -142v-170h117zM603.001 1775l301 -298h-239l-62 60l-58 -60h-235z" />
    <glyph glyph-name="Atilde" unicode="&#xc3;" horiz-adv-x="1212" 
d="M632 685l0.000976562 -360h-117v-325h-406v868c0 168 45.833 298.5 137.5 391.5s220.5 139.5 386.5 139.5c160 0 278.333 -42.167 355 -126.5s115 -214.5 115 -390.5v-882h-406v855c0 53.333 -6.33301 90.333 -19 111s-35.334 31 -68.001 31
c-63.333 0 -95 -47.333 -95 -142v-170h117zM722.001 1744l176.001 0.000976562c-3.33301 -82.667 -20.333 -147.834 -51 -195.501s-70.667 -71.5 -120 -71.5c-31.333 0 -75 15.667 -131 47c-26 14.667 -44.333 22 -55 22c-22 0 -35 -20.333 -39 -61h-187
c16.667 178 80.667 267 192 267c30.667 0 65 -10.333 103 -31l40 -21c15.333 -8.66699 28.666 -13 39.999 -13c22 0 33 14.333 33 43c0 3.33301 -0.333008 8 -1 14z" />
    <glyph glyph-name="Adieresis" unicode="&#xc4;" horiz-adv-x="1212" 
d="M632 685l0.000976562 -360h-117v-325h-406v868c0 168 45.833 298.5 137.5 391.5s220.5 139.5 386.5 139.5c160 0 278.333 -42.167 355 -126.5s115 -214.5 115 -390.5v-882h-406v855c0 53.333 -6.33301 90.333 -19 111s-35.334 31 -68.001 31
c-63.333 0 -95 -47.333 -95 -142v-170h117zM372.001 1809c49.333 0 91.5 -17.5 126.5 -52.5s52.5 -77.167 52.5 -126.5c0 -50 -17.5 -92.5 -52.5 -127.5s-77.167 -52.5 -126.5 -52.5c-50 0 -92.5 17.5 -127.5 52.5s-52.5 77.5 -52.5 127.5c0 49.333 17.5 91.5 52.5 126.5
s77.5 52.5 127.5 52.5zM841.001 1809c49.333 0 91.5 -17.5 126.5 -52.5s52.5 -77.167 52.5 -126.5c0 -50 -17.5 -92.5 -52.5 -127.5s-77.167 -52.5 -126.5 -52.5c-50 0 -92.5 17.5 -127.5 52.5s-52.5 77.5 -52.5 127.5c0 49.333 17.5 91.5 52.5 126.5s77.5 52.5 127.5 52.5z
" />
    <glyph glyph-name="Aring" unicode="&#xc5;" horiz-adv-x="1212" 
d="M632 685l0.000976562 -360h-117v-325h-406v868c0 168 45.833 298.5 137.5 391.5s220.5 139.5 386.5 139.5c160 0 278.333 -42.167 355 -126.5s115 -214.5 115 -390.5v-882h-406v855c0 53.333 -6.33301 90.333 -19 111s-35.334 31 -68.001 31
c-63.333 0 -95 -47.333 -95 -142v-170h117zM606.001 1841c53.333 0 98.833 -18.833 136.5 -56.5s56.5 -82.834 56.5 -135.501c0 -53.333 -18.833 -98.833 -56.5 -136.5s-83.167 -56.5 -136.5 -56.5s-98.833 18.833 -136.5 56.5s-56.5 83.167 -56.5 136.5
c0 52.667 18.833 97.834 56.5 135.501s83.167 56.5 136.5 56.5zM605.001 1710c-16.667 0 -31.167 -6 -43.5 -18s-18.5 -26.333 -18.5 -43c0 -17.333 6 -32 18 -44s26.667 -18 44 -18s32.166 6 44.499 18s18.5 26.667 18.5 44c0 16.667 -6.16699 31 -18.5 43
s-27.166 18 -44.499 18z" />
    <glyph glyph-name="AE" unicode="&#xc6;" horiz-adv-x="1565" 
d="M1443 837v-306h-265c-66 0 -99 -22.333 -99 -67c0 -48 37.333 -72 112 -72h278v-392h-784v867c0 47.333 -6 80.833 -18 100.5s-32.667 29.5 -62 29.5c-60 0 -90 -37.333 -90 -112v-199h107v-358h-107v-328h-406v867c0 145.333 35.333 261.333 106 348
c46 56 104.333 100.667 175 134s142.667 50 216 50c98.667 0 190 -28.667 274 -86c54.667 34.667 131 52 229 52h360v-388h-259c-69.333 0 -104 -23 -104 -69c0 -47.333 35.667 -71 107 -71h230z" />
    <glyph glyph-name="Ccedilla" unicode="&#xc7;" horiz-adv-x="1540" 
d="M953 -14c-27.333 -160 -119.669 -281.669 -277.002 -365.002l-174 179c57.333 60 90.333 121.667 99 185c-165.333 38.667 -297.833 121.167 -397.5 247.5s-149.5 274.833 -149.5 445.5c0 203.333 69.833 374.333 209.5 513s311.834 208 516.501 208
c201.333 0 369.333 -68 504 -204c93.333 -94 159.333 -225 198 -393l-435 -29c-48.667 149.333 -141 224 -277 224c-86.667 0 -158.167 -30 -214.5 -90s-84.5 -136.333 -84.5 -229c0 -89.333 27.667 -163.166 83 -221.499s125.333 -87.5 210 -87.5
c86 0 154.5 25.667 205.5 77s81.167 125 90.5 221l425 -11c-47.333 -371.333 -224.666 -594.666 -531.999 -669.999z" />
    <glyph glyph-name="Egrave" unicode="&#xc8;" horiz-adv-x="987" 
d="M865 834v-304h-265c-36 0 -61.5 -5.33301 -76.5 -16s-22.5 -28.667 -22.5 -54c0 -28.667 7.66699 -47.5 23 -56.5s46.666 -13.5 93.999 -13.5h273v-390h-319c-150 -0 -264.667 35.833 -344 107.5s-119 175.167 -119 310.5v535c0 130.667 37.5 232 112.5 304
s180.5 108 316.5 108h353v-392h-259c-70 0 -105 -22.667 -105 -68c0 -26.667 8.33301 -45.167 25 -55.5s46.334 -15.5 89.001 -15.5h224zM216 1752h280l249 -273h-249z" />
    <glyph glyph-name="Eacute" unicode="&#xc9;" horiz-adv-x="987" 
d="M865 834v-304h-265c-36 0 -61.5 -5.33301 -76.5 -16s-22.5 -28.667 -22.5 -54c0 -28.667 7.66699 -47.5 23 -56.5s46.666 -13.5 93.999 -13.5h273v-390h-319c-150 -0 -264.667 35.833 -344 107.5s-119 175.167 -119 310.5v535c0 130.667 37.5 232 112.5 304
s180.5 108 316.5 108h353v-392h-259c-70 0 -105 -22.667 -105 -68c0 -26.667 8.33301 -45.167 25 -55.5s46.334 -15.5 89.001 -15.5h224zM1018 1751l-280 -273h-249l249 273h280z" />
    <glyph glyph-name="Ecircumflex" unicode="&#xca;" horiz-adv-x="987" 
d="M865 834v-304h-265c-36 0 -61.5 -5.33301 -76.5 -16s-22.5 -28.667 -22.5 -54c0 -28.667 7.66699 -47.5 23 -56.5s46.666 -13.5 93.999 -13.5h273v-390h-319c-150 -0 -264.667 35.833 -344 107.5s-119 175.167 -119 310.5v535c0 130.667 37.5 232 112.5 304
s180.5 108 316.5 108h353v-392h-259c-70 0 -105 -22.667 -105 -68c0 -26.667 8.33301 -45.167 25 -55.5s46.334 -15.5 89.001 -15.5h224zM571 1775l301 -298h-239l-62 60l-58 -60h-234z" />
    <glyph glyph-name="Edieresis" unicode="&#xcb;" horiz-adv-x="987" 
d="M865 834v-304h-265c-36 0 -61.5 -5.33301 -76.5 -16s-22.5 -28.667 -22.5 -54c0 -28.667 7.66699 -47.5 23 -56.5s46.666 -13.5 93.999 -13.5h273v-390h-319c-150 -0 -264.667 35.833 -344 107.5s-119 175.167 -119 310.5v535c0 130.667 37.5 232 112.5 304
s180.5 108 316.5 108h353v-392h-259c-70 0 -105 -22.667 -105 -68c0 -26.667 8.33301 -45.167 25 -55.5s46.334 -15.5 89.001 -15.5h224zM341 1809c49.333 0 91.5 -17.5 126.5 -52.5s52.5 -77.167 52.5 -126.5c0 -50 -17.5 -92.5 -52.5 -127.5s-77.167 -52.5 -126.5 -52.5
c-50 0 -92.5 17.5 -127.5 52.5s-52.5 77.5 -52.5 127.5c0 49.333 17.5 91.5 52.5 126.5s77.5 52.5 127.5 52.5zM811 1809c49.333 0 91.5 -17.5 126.5 -52.5s52.5 -77.167 52.5 -126.5c0 -50 -17.5 -92.5 -52.5 -127.5s-77.167 -52.5 -126.5 -52.5
c-50 0 -92.5 17.5 -127.5 52.5s-52.5 77.5 -52.5 127.5c0 49.333 17.5 91.5 52.5 126.5s77.5 52.5 127.5 52.5z" />
    <glyph glyph-name="Igrave" unicode="&#xcc;" horiz-adv-x="679" 
d="M542 1365v-1365h-406v1365h406zM-7 1752h280l249 -273h-249z" />
    <glyph glyph-name="Iacute" unicode="&#xcd;" horiz-adv-x="679" 
d="M543 1365v-1365h-406v1365h406zM727 1751l-280 -273h-249l249 273h280z" />
    <glyph glyph-name="Icircumflex" unicode="&#xce;" horiz-adv-x="679" 
d="M543 1365v-1365h-406v1365h406zM335 1775l302 -298h-239l-63 60l-58 -60h-234z" />
    <glyph glyph-name="Idieresis" unicode="&#xcf;" horiz-adv-x="678" 
d="M543 1365v-1365h-406v1365h406zM116 1801c47.333 0 87.666 -16.667 120.999 -50s50 -73.666 50 -120.999c0 -46.667 -16.667 -86.667 -50 -120s-73.666 -50 -120.999 -50c-46.667 0 -86.667 16.667 -120 50s-50 73.333 -50 120c0 47.333 16.667 87.666 50 120.999
s73.333 50 120 50zM562 1801c47.333 0 87.666 -16.667 120.999 -50s50 -73.666 50 -120.999c0 -46.667 -16.667 -86.667 -50 -120s-73.666 -50 -120.999 -50c-46.667 0 -86.667 16.667 -120 50s-50 73.333 -50 120c0 47.333 16.667 87.666 50 120.999s73.333 50 120 50z" />
    <glyph glyph-name="Eth" unicode="&#xd0;" horiz-adv-x="1499" 
d="M543 973l-0.000976562 -156.999h217v-273h-217v-543h-406v543h-137v273h137v549h528c232.667 0 414.334 -52.667 545.001 -158c156 -126 234 -297 234 -513c0 -206.667 -66.5 -375.334 -199.5 -506.001s-304.5 -196 -514.5 -196c-24.667 0 -65 1.33301 -121 4v401h64
c236.667 0 355 99 355 297c0 186 -116 279 -348 279h-137z" />
    <glyph glyph-name="Ntilde" unicode="&#xd1;" horiz-adv-x="1206" 
d="M109 0v886.001c0 155.333 46.5 279.666 139.5 372.999s216.833 140 371.5 140c154 0 271.833 -45.333 353.5 -136s122.5 -221 122.5 -391v-872h-406v872c0 83.333 -29.667 125 -89 125c-57.333 0 -86 -41.667 -86 -125v-872h-406zM718 1744l176 0.000976562
c-4 -82.667 -21.333 -147.834 -52 -195.501s-70.667 -71.5 -120 -71.5c-31.333 0 -75 15.667 -131 47c-25.333 14.667 -43.333 22 -54 22c-22 0 -35 -20.333 -39 -61h-187c16.667 178 80.334 267 191.001 267c30.667 0 65 -10.333 103 -31l40 -21
c15.333 -8.66699 28.666 -13 39.999 -13c22 0 33 14.333 33 43v14z" />
    <glyph glyph-name="Ograve" unicode="&#xd2;" horiz-adv-x="1543" 
d="M784 1399c193.333 0 359.166 -70.334 497.499 -211.001s207.5 -309 207.5 -505c0 -199.333 -69.667 -368.666 -209 -507.999s-308.666 -209 -507.999 -209c-198 0 -367 70 -507 210s-210 309 -210 507c0 200 70.5 369.333 211.5 508s313.5 208 517.5 208zM772 996.999
c-83.333 0 -154.333 -30.667 -213 -92s-88 -135.333 -88 -222s29.5 -160.667 88.5 -222s129.833 -92 212.5 -92c84 0 155.167 30.5 213.5 91.5s87.5 135.167 87.5 222.5s-29.167 161.5 -87.5 222.5s-129.5 91.5 -213.5 91.5zM425 1752h279l249 -273h-249z" />
    <glyph glyph-name="Oacute" unicode="&#xd3;" horiz-adv-x="1543" 
d="M784 1399c193.333 0 359.166 -70.334 497.499 -211.001s207.5 -309 207.5 -505c0 -199.333 -69.667 -368.666 -209 -507.999s-308.666 -209 -507.999 -209c-198 0 -367 70 -507 210s-210 309 -210 507c0 200 70.5 369.333 211.5 508s313.5 208 517.5 208zM772 996.999
c-83.333 0 -154.333 -30.667 -213 -92s-88 -135.333 -88 -222s29.5 -160.667 88.5 -222s129.833 -92 212.5 -92c84 0 155.167 30.5 213.5 91.5s87.5 135.167 87.5 222.5s-29.167 161.5 -87.5 222.5s-129.5 91.5 -213.5 91.5zM1159 1751l-280 -273h-249l249 273h280z" />
    <glyph glyph-name="Ocircumflex" unicode="&#xd4;" horiz-adv-x="1543" 
d="M784 1399c193.333 0 359.166 -70.334 497.499 -211.001s207.5 -309 207.5 -505c0 -199.333 -69.667 -368.666 -209 -507.999s-308.666 -209 -507.999 -209c-198 0 -367 70 -507 210s-210 309 -210 507c0 200 70.5 369.333 211.5 508s313.5 208 517.5 208zM772 996.999
c-83.333 0 -154.333 -30.667 -213 -92s-88 -135.333 -88 -222s29.5 -160.667 88.5 -222s129.833 -92 212.5 -92c84 0 155.167 30.5 213.5 91.5s87.5 135.167 87.5 222.5s-29.167 161.5 -87.5 222.5s-129.5 91.5 -213.5 91.5zM768 1775l301 -298h-239l-62 60l-58 -60h-235z
" />
    <glyph glyph-name="Otilde" unicode="&#xd5;" horiz-adv-x="1543" 
d="M784 1399c193.333 0 359.166 -70.334 497.499 -211.001s207.5 -309 207.5 -505c0 -199.333 -69.667 -368.666 -209 -507.999s-308.666 -209 -507.999 -209c-198 0 -367 70 -507 210s-210 309 -210 507c0 200 70.5 369.333 211.5 508s313.5 208 517.5 208zM772 996.999
c-83.333 0 -154.333 -30.667 -213 -92s-88 -135.333 -88 -222s29.5 -160.667 88.5 -222s129.833 -92 212.5 -92c84 0 155.167 30.5 213.5 91.5s87.5 135.167 87.5 222.5s-29.167 161.5 -87.5 222.5s-129.5 91.5 -213.5 91.5zM887 1744l175.999 0.000976562
c-4 -82.667 -21.167 -147.834 -51.5 -195.501s-70.166 -71.5 -119.499 -71.5c-31.333 0 -75.333 15.667 -132 47c-25.333 14.667 -43.333 22 -54 22c-22 0 -35 -20.333 -39 -61h-187c16.667 178 80.334 267 191.001 267c30.667 0 65 -10.333 103 -31l40 -21
c15.333 -8.66699 28.666 -13 39.999 -13c22 0 33 14.333 33 43v14z" />
    <glyph glyph-name="Odieresis" unicode="&#xd6;" horiz-adv-x="1543" 
d="M784 1399c193.333 0 359.166 -70.334 497.499 -211.001s207.5 -309 207.5 -505c0 -199.333 -69.667 -368.666 -209 -507.999s-308.666 -209 -507.999 -209c-198 0 -367 70 -507 210s-210 309 -210 507c0 200 70.5 369.333 211.5 508s313.5 208 517.5 208zM772 996.999
c-83.333 0 -154.333 -30.667 -213 -92s-88 -135.333 -88 -222s29.5 -160.667 88.5 -222s129.833 -92 212.5 -92c84 0 155.167 30.5 213.5 91.5s87.5 135.167 87.5 222.5s-29.167 161.5 -87.5 222.5s-129.5 91.5 -213.5 91.5zM537 1809c49.333 0 91.5 -17.5 126.5 -52.5
s52.5 -77.167 52.5 -126.5c0 -50 -17.5 -92.5 -52.5 -127.5s-77.167 -52.5 -126.5 -52.5c-50 0 -92.5 17.5 -127.5 52.5s-52.5 77.5 -52.5 127.5c0 49.333 17.5 91.5 52.5 126.5s77.5 52.5 127.5 52.5zM1007 1809c49.333 0 91.5 -17.5 126.5 -52.5s52.5 -77.167 52.5 -126.5
c0 -50 -17.5 -92.5 -52.5 -127.5s-77.167 -52.5 -126.5 -52.5c-50 0 -92.5 17.5 -127.5 52.5s-52.5 77.5 -52.5 127.5c0 49.333 17.5 91.5 52.5 126.5s77.5 52.5 127.5 52.5z" />
    <glyph glyph-name="multiply" unicode="&#xd7;" horiz-adv-x="1533" 
d="M562 696l-298 298l205 205l298 -297l297 297l205 -205l-297 -298l297 -297l-205 -205l-297 297l-298 -297l-205 205z" />
    <glyph glyph-name="Oslash" unicode="&#xd8;" horiz-adv-x="1544" 
d="M1298 1171c127.333 -141.333 190.999 -304.001 190.999 -488.001c0 -197.333 -70.167 -366.166 -210.5 -506.499s-309.166 -210.5 -506.499 -210.5c-166 0 -315.667 52.667 -449 158l-116 -124l-64 59l116 123c-136 140.667 -204 307.667 -204 501
c0 197.333 70 366 210 506s309 210 507 210c176 0 331.333 -57 466 -171l114 122l61 -56zM1015 866.999l-413 -442.999c54 -36.667 110.667 -55 170 -55c82.667 0 153.5 30.667 212.5 92s88.5 135.333 88.5 222c0 63.333 -19.333 124.666 -58 183.999zM539.999 483
l418 447.001c-59.333 44.667 -121.333 67 -186 67c-83.333 0 -154.333 -30.667 -213 -92s-88 -135.333 -88 -222c0 -72.667 23 -139.334 69 -200.001z" />
    <glyph glyph-name="Ugrave" unicode="&#xd9;" horiz-adv-x="1206" 
d="M1096 1365v-885c0 -156 -46.5 -280.667 -139.5 -374s-216.833 -140 -371.5 -140c-154 0 -271.833 45.333 -353.5 136s-122.5 221 -122.5 391v872h406v-871c0 -83.333 29.667 -125 89 -125c57.333 0 86 41.667 86 125v871h406zM257 1752h280l249 -273h-249z" />
    <glyph glyph-name="Uacute" unicode="&#xda;" horiz-adv-x="1206" 
d="M1096 1365v-885c0 -156 -46.5 -280.667 -139.5 -374s-216.833 -140 -371.5 -140c-154 0 -271.833 45.333 -353.5 136s-122.5 221 -122.5 391v872h406v-871c0 -83.333 29.667 -125 89 -125c57.333 0 86 41.667 86 125v871h406zM990 1751l-280 -273h-249l249 273h280z" />
    <glyph glyph-name="Ucircumflex" unicode="&#xdb;" horiz-adv-x="1206" 
d="M1096 1365v-885c0 -156 -46.5 -280.667 -139.5 -374s-216.833 -140 -371.5 -140c-154 0 -271.833 45.333 -353.5 136s-122.5 221 -122.5 391v872h406v-871c0 -83.333 29.667 -125 89 -125c57.333 0 86 41.667 86 125v871h406zM598 1775l301 -298h-239l-62 60l-58 -60
h-234z" />
    <glyph glyph-name="Udieresis" unicode="&#xdc;" horiz-adv-x="1206" 
d="M1096 1365v-885c0 -156 -46.5 -280.667 -139.5 -374s-216.833 -140 -371.5 -140c-154 0 -271.833 45.333 -353.5 136s-122.5 221 -122.5 391v872h406v-871c0 -83.333 29.667 -125 89 -125c57.333 0 86 41.667 86 125v871h406zM367 1809c50 0 92.5 -17.5 127.5 -52.5
s52.5 -77.167 52.5 -126.5c0 -50 -17.5 -92.5 -52.5 -127.5s-77.5 -52.5 -127.5 -52.5c-49.333 0 -91.5 17.5 -126.5 52.5s-52.5 77.5 -52.5 127.5c0 49.333 17.5 91.5 52.5 126.5s77.167 52.5 126.5 52.5zM838 1809c49.333 0 91.5 -17.5 126.5 -52.5
s52.5 -77.167 52.5 -126.5c0 -50 -17.5 -92.5 -52.5 -127.5s-77.167 -52.5 -126.5 -52.5c-50 0 -92.5 17.5 -127.5 52.5s-52.5 77.5 -52.5 127.5c0 49.333 17.5 91.5 52.5 126.5s77.5 52.5 127.5 52.5z" />
    <glyph glyph-name="Yacute" unicode="&#xdd;" horiz-adv-x="1030" 
d="M1099 1365l-386 -607v-758h-406v758l-389 607h412l176 -281l189 281h404zM902 1751l-279 -273h-249l249 273h279z" />
    <glyph glyph-name="Thorn" unicode="&#xde;" horiz-adv-x="1151" 
d="M109 1365h406v-169c41.333 8 79.333 12 114 12c138.667 0 255.167 -46.667 349.5 -140s141.5 -209 141.5 -347c0 -134 -42.333 -242.667 -127 -326c-77.333 -76.667 -194 -115 -350 -115h-62v359c82 0 123 31.333 123 94c0 57.333 -31.333 86 -94 86
c-63.333 0 -95 -39.667 -95 -119v-700h-406v1365z" />
    <glyph glyph-name="germandbls" unicode="&#xdf;" horiz-adv-x="1163" 
d="M529 565l-0.000976562 252.998l23 -1c40 0 71.667 9.33301 95 28s35 44.334 35 77.001c0 29.333 -9.83301 53.5 -29.5 72.5s-45.167 28.5 -76.5 28.5c-69.333 0 -104 -38.333 -104 -115v-908h-374v965c0 118 42.167 218.5 126.5 301.5s186.5 124.5 306.5 124.5
c125.333 0 229.5 -40.333 312.5 -121s124.5 -182.334 124.5 -305.001c0 -77.333 -24.333 -155 -73 -233c74 -51.333 126.167 -102.666 156.5 -153.999s45.5 -113.666 45.5 -186.999c0 -114.667 -42.167 -214.167 -126.5 -298.5s-184.166 -126.5 -299.499 -126.5
c-48.667 0 -96 8.66699 -142 26v321c28 -10 52.667 -15 74 -15c35.333 0 65 12.167 89 36.5s36 55.166 36 92.499c0 44 -15.5 76.833 -46.5 98.5s-81.833 34.834 -152.5 39.501z" />
    <glyph glyph-name="agrave" unicode="&#xe0;" horiz-adv-x="1204" 
d="M663 374v-387.003c-30.667 -5.33301 -58.667 -8 -84 -8c-150 0 -275 49.333 -375 148s-150 222.334 -150 371.001c0 144.667 50.5 267.334 151.5 368.001s223.833 151 368.5 151c161.333 0 288.5 -47.167 381.5 -141.5s139.5 -223.166 139.5 -386.499v-489h-374v462
c0 52.667 -12.833 94.667 -38.5 126s-60.167 47 -103.5 47c-39.333 0 -73.333 -14.333 -102 -43s-43 -62.667 -43 -102c0 -41.333 13 -75.333 39 -102s59 -40 99 -40c32.667 0 63 8.66699 91 26zM547 1329l211 -232h-211l-237 232h237z" />
    <glyph glyph-name="aacute" unicode="&#xe1;" horiz-adv-x="1204" 
d="M663 374v-387.003c-30.667 -5.33301 -58.667 -8 -84 -8c-150 0 -275 49.333 -375 148s-150 222.334 -150 371.001c0 144.667 50.5 267.334 151.5 368.001s223.833 151 368.5 151c161.333 0 288.5 -47.167 381.5 -141.5s139.5 -223.166 139.5 -386.499v-489h-374v462
c0 52.667 -12.833 94.667 -38.5 126s-60.167 47 -103.5 47c-39.333 0 -73.333 -14.333 -102 -43s-43 -62.667 -43 -102c0 -41.333 13 -75.333 39 -102s59 -40 99 -40c32.667 0 63 8.66699 91 26zM657 1329h237l-237 -232h-211z" />
    <glyph glyph-name="acircumflex" unicode="&#xe2;" horiz-adv-x="1204" 
d="M663 374v-387.003c-30.667 -5.33301 -58.667 -8 -84 -8c-150 0 -275 49.333 -375 148s-150 222.334 -150 371.001c0 144.667 50.5 267.334 151.5 368.001s223.833 151 368.5 151c161.333 0 288.5 -47.167 381.5 -141.5s139.5 -223.166 139.5 -386.499v-489h-374v462
c0 52.667 -12.833 94.667 -38.5 126s-60.167 47 -103.5 47c-39.333 0 -73.333 -14.333 -102 -43s-43 -62.667 -43 -102c0 -41.333 13 -75.333 39 -102s59 -40 99 -40c32.667 0 63 8.66699 91 26zM595 1361l279 -268h-234l-45 49l-51 -49h-214z" />
    <glyph glyph-name="atilde" unicode="&#xe3;" horiz-adv-x="1204" 
d="M663 374v-387.003c-30.667 -5.33301 -58.667 -8 -84 -8c-150 0 -275 49.333 -375 148s-150 222.334 -150 371.001c0 144.667 50.5 267.334 151.5 368.001s223.833 151 368.5 151c161.333 0 288.5 -47.167 381.5 -141.5s139.5 -223.166 139.5 -386.499v-489h-374v462
c0 52.667 -12.833 94.667 -38.5 126s-60.167 47 -103.5 47c-39.333 0 -73.333 -14.333 -102 -43s-43 -62.667 -43 -102c0 -41.333 13 -75.333 39 -102s59 -40 99 -40c32.667 0 63 8.66699 91 26zM699 1322h154c0 -67.333 -15.667 -122.666 -47 -165.999
s-71.333 -65 -120 -65c-27.333 0 -54 8 -80 24l-45 28c-6.66699 4 -13.667 6.33301 -21 7c-20.667 1.33301 -34 -16 -40 -52h-149c0 72 14.5 128 43.5 168s69.833 60 122.5 60c26.667 0 52.334 -7.66699 77.001 -23l40 -24
c7.33301 -4.66699 15.666 -7.33398 24.999 -8.00098c22.667 -1.33301 36 15.667 40 51z" />
    <glyph glyph-name="adieresis" unicode="&#xe4;" horiz-adv-x="1204" 
d="M663 374v-387.003c-30.667 -5.33301 -58.667 -8 -84 -8c-150 0 -275 49.333 -375 148s-150 222.334 -150 371.001c0 144.667 50.5 267.334 151.5 368.001s223.833 151 368.5 151c161.333 0 288.5 -47.167 381.5 -141.5s139.5 -223.166 139.5 -386.499v-489h-374v462
c0 52.667 -12.833 94.667 -38.5 126s-60.167 47 -103.5 47c-39.333 0 -73.333 -14.333 -102 -43s-43 -62.667 -43 -102c0 -41.333 13 -75.333 39 -102s59 -40 99 -40c32.667 0 63 8.66699 91 26zM351 1439c54.667 0 100.333 -16.499 137 -49.499s55 -74.5 55 -124.5
c0 -49.333 -19.333 -92.5 -58 -129.5s-84 -55.5 -136 -55.5c-49.333 0 -92.5 18.5 -129.5 55.5s-55.5 80.167 -55.5 129.5c0 47.333 18.5 88.166 55.5 122.499s80.833 51.5 131.5 51.5zM850.999 1437c54.667 0 100.333 -16.499 137 -49.499s55 -74.5 55 -124.5
c0 -49.333 -19.333 -92.5 -58 -129.5s-84 -55.5 -136 -55.5c-49.333 0 -92.5 18.5 -129.5 55.5s-55.5 80.167 -55.5 129.5c0 47.333 18.5 88.166 55.5 122.499s80.833 51.5 131.5 51.5z" />
    <glyph glyph-name="aring" unicode="&#xe5;" horiz-adv-x="1204" 
d="M663 374v-387.003c-30.667 -5.33301 -58.667 -8 -84 -8c-150 0 -275 49.333 -375 148s-150 222.334 -150 371.001c0 144.667 50.5 267.334 151.5 368.001s223.833 151 368.5 151c161.333 0 288.5 -47.167 381.5 -141.5s139.5 -223.166 139.5 -386.499v-489h-374v462
c0 52.667 -12.833 94.667 -38.5 126s-60.167 47 -103.5 47c-39.333 0 -73.333 -14.333 -102 -43s-43 -62.667 -43 -102c0 -41.333 13 -75.333 39 -102s59 -40 99 -40c32.667 0 63 8.66699 91 26zM602 1470c52.667 0 97.834 -18.833 135.501 -56.5s56.5 -83.167 56.5 -136.5
s-18.833 -98.833 -56.5 -136.5s-82.834 -56.5 -135.501 -56.5c-53.333 0 -98.833 18.833 -136.5 56.5s-56.5 83.167 -56.5 136.5s18.833 98.833 56.5 136.5s83.167 56.5 136.5 56.5zM601 1339c-17.333 0 -32 -6 -44 -18s-18 -26.667 -18 -44s6 -32 18 -44s26.667 -18 44 -18
c16.667 0 31 6 43 18s18 26.667 18 44s-6 32 -18 44s-26.333 18 -43 18z" />
    <glyph glyph-name="ae" unicode="&#xe6;" horiz-adv-x="1802" 
d="M1755 441l-581.999 0.00195312c-9.33301 32 -14 58.667 -14 80c0 26 6.33301 57.667 19 95h206c-15.333 73.333 -59 110 -131 110c-48.667 0 -88 -19.333 -118 -58s-45 -89.334 -45 -152.001c0 -66.667 14.667 -120.167 44 -160.5s68 -60.5 116 -60.5
c42 0 79.333 20.333 112 61l213 -255c-100.667 -80.667 -209.334 -121 -326.001 -121c-50 0 -107.667 6.66699 -173 20h-363v458c0 61.333 -10.833 106.166 -32.5 134.499s-55.834 42.5 -102.501 42.5c-40 0 -74 -14.333 -102 -43s-42 -63.334 -42 -104.001
c0 -39.333 13.333 -72.5 40 -99.5s59.667 -40.5 99 -40.5c24.667 0 52.334 9.33301 83.001 28v-391c-35.333 -3.33301 -60.333 -5 -75 -5c-147.333 0 -272 49.833 -374 149.5s-153 221.5 -153 365.5c0 140.667 49.667 262.834 149 366.501s217 155.5 353 155.5
c128 0 242.667 -43.667 344 -131c99.333 87.333 211 131 335 131c146 0 270 -48.167 372 -144.5s153 -213.5 153 -351.5c0 -17.333 -1.66699 -44 -5 -80z" />
    <glyph glyph-name="ccedilla" unicode="&#xe7;" horiz-adv-x="1146" 
d="M747 8c-17.333 -131.333 -96.998 -227.669 -238.998 -289.002l-135 137c36 47.333 54 90 54 128v18c-114 35.333 -204.5 98.5 -271.5 189.5s-100.5 196.5 -100.5 316.5c0 140 51 260 153 360s224.333 150 367 150c124.667 0 234.667 -39.333 330 -118
s154.666 -179 177.999 -301l-379 -14c-32 42.667 -73.333 64 -124 64c-42.667 0 -77.667 -14 -105 -42s-41 -63.333 -41 -106c0 -43.333 14.5 -79.666 43.5 -108.999s65.167 -44 108.5 -44c62.667 0 107.667 37 135 111l371 14c-8 -112 -42.333 -208.667 -103 -290
s-141.334 -139.666 -242.001 -174.999z" />
    <glyph glyph-name="egrave" unicode="&#xe8;" horiz-adv-x="1135" 
d="M1089 438h-567.001c-8.66699 28.667 -13 55 -13 79c0 33.333 6 66 18 98h190c-13.333 74 -55 111 -125 111c-46.667 0 -84.667 -19.833 -114 -59.5s-44 -90.5 -44 -152.5c0 -64.667 14.167 -117 42.5 -157s65.5 -60 111.5 -60c37.333 0 73.333 18.667 108 56l213 -256
c-99.333 -78 -209.666 -117 -330.999 -117c-148 0 -272.333 49.667 -373 149s-151 222.333 -151 369c0 146 50.833 269.333 152.5 370s226.5 151 374.5 151c144.667 0 266.167 -49.167 364.5 -147.5s147.5 -219.5 147.5 -363.5c0 -14.667 -1.33301 -38 -4 -70zM511.999 1329
l211 -232h-211l-237 232h237z" />
    <glyph glyph-name="eacute" unicode="&#xe9;" horiz-adv-x="1135" 
d="M1089 438h-567.001c-8.66699 28.667 -13 55 -13 79c0 33.333 6 66 18 98h190c-13.333 74 -55 111 -125 111c-46.667 0 -84.667 -19.833 -114 -59.5s-44 -90.5 -44 -152.5c0 -64.667 14.167 -117 42.5 -157s65.5 -60 111.5 -60c37.333 0 73.333 18.667 108 56l213 -256
c-99.333 -78 -209.666 -117 -330.999 -117c-148 0 -272.333 49.667 -373 149s-151 222.333 -151 369c0 146 50.833 269.333 152.5 370s226.5 151 374.5 151c144.667 0 266.167 -49.167 364.5 -147.5s147.5 -219.5 147.5 -363.5c0 -14.667 -1.33301 -38 -4 -70zM676.999 1329
h237l-237 -232h-211z" />
    <glyph glyph-name="ecircumflex" unicode="&#xea;" horiz-adv-x="1135" 
d="M1089 438h-567.001c-8.66699 28.667 -13 55 -13 79c0 33.333 6 66 18 98h190c-13.333 74 -55 111 -125 111c-46.667 0 -84.667 -19.833 -114 -59.5s-44 -90.5 -44 -152.5c0 -64.667 14.167 -117 42.5 -157s65.5 -60 111.5 -60c37.333 0 73.333 18.667 108 56l213 -256
c-99.333 -78 -209.666 -117 -330.999 -117c-148 0 -272.333 49.667 -373 149s-151 222.333 -151 369c0 146 50.833 269.333 152.5 370s226.5 151 374.5 151c144.667 0 266.167 -49.167 364.5 -147.5s147.5 -219.5 147.5 -363.5c0 -14.667 -1.33301 -38 -4 -70zM559.999 1361
l279 -268h-234l-45 49l-51 -49h-214z" />
    <glyph glyph-name="edieresis" unicode="&#xeb;" horiz-adv-x="1135" 
d="M1089 438h-567.001c-8.66699 28.667 -13 55 -13 79c0 33.333 6 66 18 98h190c-13.333 74 -55 111 -125 111c-46.667 0 -84.667 -19.833 -114 -59.5s-44 -90.5 -44 -152.5c0 -64.667 14.167 -117 42.5 -157s65.5 -60 111.5 -60c37.333 0 73.333 18.667 108 56l213 -256
c-99.333 -78 -209.666 -117 -330.999 -117c-148 0 -272.333 49.667 -373 149s-151 222.333 -151 369c0 146 50.833 269.333 152.5 370s226.5 151 374.5 151c144.667 0 266.167 -49.167 364.5 -147.5s147.5 -219.5 147.5 -363.5c0 -14.667 -1.33301 -38 -4 -70zM315.999 1439
c54.667 0 100.333 -16.499 137 -49.499s55 -74.5 55 -124.5c0 -49.333 -19.333 -92.5 -58 -129.5s-84 -55.5 -136 -55.5c-49.333 0 -92.5 18.5 -129.5 55.5s-55.5 80.167 -55.5 129.5c0 47.333 18.5 88.166 55.5 122.499s80.833 51.5 131.5 51.5zM815.998 1437
c54.667 0 100.333 -16.499 137 -49.499s55 -74.5 55 -124.5c0 -49.333 -19.333 -92.5 -58 -129.5s-84 -55.5 -136 -55.5c-49.333 0 -92.5 18.5 -129.5 55.5s-55.5 80.167 -55.5 129.5c0 47.333 18.5 88.166 55.5 122.499s80.833 51.5 131.5 51.5z" />
    <glyph glyph-name="igrave" unicode="&#xec;" horiz-adv-x="593" 
d="M483 997v-997h-374v997h374zM242 1329l211 -232h-211l-237 232h237z" />
    <glyph glyph-name="iacute" unicode="&#xed;" horiz-adv-x="593" 
d="M483 997v-997h-374v997h374zM352 1329h237l-237 -232h-211z" />
    <glyph glyph-name="icircumflex" unicode="&#xee;" horiz-adv-x="593" 
d="M290 1361l279 -268h-234l-45 49l-51 -49h-214zM483 997v-997h-374v997h374z" />
    <glyph glyph-name="idieresis" unicode="&#xef;" horiz-adv-x="593" 
d="M483 997v-997h-374v997h374zM76 1418c49.333 0 90.5 -14.832 123.5 -44.499s49.5 -66.834 49.5 -111.501s-17.5 -83.667 -52.5 -117s-75.5 -50 -121.5 -50c-44.667 0 -83.667 16.667 -117 50s-50 72.333 -50 117c0 42 16.5 78.5 49.5 109.5s72.5 46.5 118.5 46.5z
M512 1416c49.333 0 90.501 -14.832 123.501 -44.499s49.5 -66.834 49.5 -111.501s-17.5 -83.667 -52.5 -117s-75.5 -50 -121.5 -50c-44.667 0 -83.667 16.667 -117 50s-50 72.333 -50 117c0 42 16.667 78.5 50 109.5s72.666 46.5 117.999 46.5z" />
    <glyph glyph-name="eth" unicode="&#xf0;" horiz-adv-x="1145" 
d="M372 1365l270.001 -0.000976562l274 -396c74 -107.333 122.667 -190.166 146 -248.499s35 -125.833 35 -202.5c0 -150.667 -49.833 -278 -149.5 -382s-221.834 -156 -366.501 -156c-152.667 0 -279.667 49.833 -381 149.5s-152 224.5 -152 374.5
c0 132.667 43.167 246 129.5 340s199.5 150.667 339.5 170zM572.001 647.999c-40 0 -73.999 -14.5 -101.999 -43.5s-42 -64.167 -42 -105.5s14.167 -76.666 42.5 -105.999s62.166 -44 101.499 -44c40 0 74.167 14.667 102.5 44s42.5 64.666 42.5 105.999s-14 76.5 -42 105.5
s-62.333 43.5 -103 43.5z" />
    <glyph glyph-name="ntilde" unicode="&#xf1;" horiz-adv-x="1107" 
d="M998 0h-374v563c0 57.333 -23.667 86 -71 86c-46.667 0 -70 -28.667 -70 -86v-563h-374v556c0 130 43 239.5 129 328.5s191.333 133.5 316 133.5c142.667 0 257 -51.667 343 -155c67.333 -80.667 101 -193 101 -337v-526zM651 1322h154
c0 -67.333 -15.667 -122.666 -47 -165.999s-71.333 -65 -120 -65c-27.333 0 -54 8 -80 24l-45 28c-6.66699 4 -13.667 6.33301 -21 7c-20.667 1.33301 -34 -16 -40 -52h-149c0 72 14.5 128 43.5 168s69.833 60 122.5 60c26.667 0 52.334 -7.66699 77.001 -23l40 -24
c7.33301 -4.66699 15.666 -7.33398 24.999 -8.00098c22.667 -1.33301 36 15.667 40 51z" />
    <glyph glyph-name="ograve" unicode="&#xf2;" horiz-adv-x="1144" 
d="M582 1018c141.333 0 262.5 -50.833 363.5 -152.5s151.5 -223.5 151.5 -365.5c0 -144 -51.167 -266.667 -153.5 -368s-225.833 -152 -370.5 -152s-268.334 50.833 -371.001 152.5s-154 224.167 -154 367.5c0 146 51.333 268.833 154 368.5s229.334 149.5 380.001 149.5z
M572 649c-40 0 -73.999 -14.5 -101.999 -43.5s-42 -64.5 -42 -106.5c0 -41.333 14.167 -76.666 42.5 -105.999s62.166 -44 101.499 -44c40 0 74.167 14.667 102.5 44s42.5 64.666 42.5 105.999c0 42 -14 77.5 -42 106.5s-62.333 43.5 -103 43.5zM517.001 1329l211 -232h-211
l-237 232h237z" />
    <glyph glyph-name="oacute" unicode="&#xf3;" horiz-adv-x="1144" 
d="M582 1018c141.333 0 262.5 -50.833 363.5 -152.5s151.5 -223.5 151.5 -365.5c0 -144 -51.167 -266.667 -153.5 -368s-225.833 -152 -370.5 -152s-268.334 50.833 -371.001 152.5s-154 224.167 -154 367.5c0 146 51.333 268.833 154 368.5s229.334 149.5 380.001 149.5z
M572 649c-40 0 -73.999 -14.5 -101.999 -43.5s-42 -64.5 -42 -106.5c0 -41.333 14.167 -76.666 42.5 -105.999s62.166 -44 101.499 -44c40 0 74.167 14.667 102.5 44s42.5 64.666 42.5 105.999c0 42 -14 77.5 -42 106.5s-62.333 43.5 -103 43.5zM627.001 1329h237l-237 -232
h-211z" />
    <glyph glyph-name="ocircumflex" unicode="&#xf4;" horiz-adv-x="1144" 
d="M582 1018c141.333 0 262.5 -50.833 363.5 -152.5s151.5 -223.5 151.5 -365.5c0 -144 -51.167 -266.667 -153.5 -368s-225.833 -152 -370.5 -152s-268.334 50.833 -371.001 152.5s-154 224.167 -154 367.5c0 146 51.333 268.833 154 368.5s229.334 149.5 380.001 149.5z
M572 649c-40 0 -73.999 -14.5 -101.999 -43.5s-42 -64.5 -42 -106.5c0 -41.333 14.167 -76.666 42.5 -105.999s62.166 -44 101.499 -44c40 0 74.167 14.667 102.5 44s42.5 64.666 42.5 105.999c0 42 -14 77.5 -42 106.5s-62.333 43.5 -103 43.5zM565.001 1361l279 -268h-234
l-45 49l-51 -49h-214z" />
    <glyph glyph-name="otilde" unicode="&#xf5;" horiz-adv-x="1144" 
d="M582 1018c141.333 0 262.5 -50.833 363.5 -152.5s151.5 -223.5 151.5 -365.5c0 -144 -51.167 -266.667 -153.5 -368s-225.833 -152 -370.5 -152s-268.334 50.833 -371.001 152.5s-154 224.167 -154 367.5c0 146 51.333 268.833 154 368.5s229.334 149.5 380.001 149.5z
M572 649c-40 0 -73.999 -14.5 -101.999 -43.5s-42 -64.5 -42 -106.5c0 -41.333 14.167 -76.666 42.5 -105.999s62.166 -44 101.499 -44c40 0 74.167 14.667 102.5 44s42.5 64.666 42.5 105.999c0 42 -14 77.5 -42 106.5s-62.333 43.5 -103 43.5zM669.001 1322h154
c0 -67.333 -15.667 -122.666 -47 -165.999s-71.333 -65 -120 -65c-27.333 0 -54 8 -80 24l-45 28c-6.66699 4 -13.667 6.33301 -21 7c-20.667 1.33301 -34 -16 -40 -52h-149c0 72 14.5 128 43.5 168s69.833 60 122.5 60c26.667 0 52.334 -7.66699 77.001 -23l40 -24
c7.33301 -4.66699 15.666 -7.33398 24.999 -8.00098c22.667 -1.33301 36 15.667 40 51z" />
    <glyph glyph-name="odieresis" unicode="&#xf6;" horiz-adv-x="1144" 
d="M582 1018c141.333 0 262.5 -50.833 363.5 -152.5s151.5 -223.5 151.5 -365.5c0 -144 -51.167 -266.667 -153.5 -368s-225.833 -152 -370.5 -152s-268.334 50.833 -371.001 152.5s-154 224.167 -154 367.5c0 146 51.333 268.833 154 368.5s229.334 149.5 380.001 149.5z
M572 649c-40 0 -73.999 -14.5 -101.999 -43.5s-42 -64.5 -42 -106.5c0 -41.333 14.167 -76.666 42.5 -105.999s62.166 -44 101.499 -44c40 0 74.167 14.667 102.5 44s42.5 64.666 42.5 105.999c0 42 -14 77.5 -42 106.5s-62.333 43.5 -103 43.5zM320.001 1439
c54.667 0 100.333 -16.499 137 -49.499s55 -74.5 55 -124.5c0 -49.333 -19.333 -92.5 -58 -129.5s-84 -55.5 -136 -55.5c-49.333 0 -92.5 18.5 -129.5 55.5s-55.5 80.167 -55.5 129.5c0 47.333 18.5 88.166 55.5 122.499s80.833 51.5 131.5 51.5zM820 1437
c54.667 0 100.333 -16.499 137 -49.499s55 -74.5 55 -124.5c0 -49.333 -19.333 -92.5 -58 -129.5s-84 -55.5 -136 -55.5c-49.333 0 -92.5 18.5 -129.5 55.5s-55.5 80.167 -55.5 129.5c0 47.333 18.5 88.166 55.5 122.499s80.833 51.5 131.5 51.5z" />
    <glyph glyph-name="divide" unicode="&#xf7;" horiz-adv-x="1533" 
d="M761 473c51.333 0 95.167 -17.667 131.5 -53s54.5 -78.333 54.5 -129c0 -49.333 -17.667 -91.5 -53 -126.5s-78.333 -52.5 -129 -52.5c-52 0 -94.833 16.833 -128.5 50.5s-50.5 76.5 -50.5 128.5c0 49.333 17.333 92 52 128s75.667 54 123 54zM761.001 1280
c52 0 96 -17.667 132 -53s54 -78.333 54 -129c0 -49.333 -17.667 -91.5 -53 -126.5s-78.333 -52.5 -129 -52.5c-52 0 -94.833 16.833 -128.5 50.5s-50.5 76.5 -50.5 128.5c0 49.333 17.167 92 51.5 128s75.5 54 123.5 54zM255.001 841h1022v-290h-1022v290z" />
    <glyph glyph-name="oslash" unicode="&#xf8;" horiz-adv-x="1144" 
d="M989 813c71.333 -98.667 107 -203.332 107 -313.999c0 -142.667 -51.333 -264.834 -154 -366.501s-226 -152.5 -370 -152.5c-130.667 0 -247.334 44 -350.001 132l-142 -130l-58 61l142 130c-78 99.333 -117 208 -117 326c0 144.667 50.833 267.167 152.5 367.5
s225.834 150.5 372.501 150.5c141.333 0 262 -47 362 -141l130 119l57 -61zM717 564.002l-226 -207.001c27.333 -14.667 54.333 -22 81 -22c43.333 0 80.5 16 111.5 48s46.5 70.667 46.5 116c0 18.667 -4.33301 40.334 -13 65.001zM434 419.001l232.001 212
c-32.667 20.667 -64.334 31 -95.001 31c-44 0 -81.333 -15.833 -112 -47.5s-46 -70.5 -46 -116.5c0 -26 7 -52.333 21 -79z" />
    <glyph glyph-name="ugrave" unicode="&#xf9;" horiz-adv-x="1107" 
d="M109 983h374v-563c0 -56.667 23.667 -85 71 -85c46.667 0 70 28.333 70 85v563h374v-556c0 -129.333 -43 -238.5 -129 -327.5s-191.333 -133.5 -316 -133.5c-142 0 -256.333 51.667 -343 155c-67.333 80.667 -101 192.667 -101 336v526zM499 1329l211 -232h-211l-237 232
h237z" />
    <glyph glyph-name="uacute" unicode="&#xfa;" horiz-adv-x="1107" 
d="M109 983h374v-563c0 -56.667 23.667 -85 71 -85c46.667 0 70 28.333 70 85v563h374v-556c0 -129.333 -43 -238.5 -129 -327.5s-191.333 -133.5 -316 -133.5c-142 0 -256.333 51.667 -343 155c-67.333 80.667 -101 192.667 -101 336v526zM609 1329h237l-237 -232h-211z
" />
    <glyph glyph-name="ucircumflex" unicode="&#xfb;" horiz-adv-x="1107" 
d="M109 983h374v-563c0 -56.667 23.667 -85 71 -85c46.667 0 70 28.333 70 85v563h374v-556c0 -129.333 -43 -238.5 -129 -327.5s-191.333 -133.5 -316 -133.5c-142 0 -256.333 51.667 -343 155c-67.333 80.667 -101 192.667 -101 336v526zM547 1361l279 -268h-234l-45 49
l-51 -49h-214z" />
    <glyph glyph-name="udieresis" unicode="&#xfc;" horiz-adv-x="1107" 
d="M109 983h374v-563c0 -56.667 23.667 -85 71 -85c46.667 0 70 28.333 70 85v563h374v-556c0 -129.333 -43 -238.5 -129 -327.5s-191.333 -133.5 -316 -133.5c-142 0 -256.333 51.667 -343 155c-67.333 80.667 -101 192.667 -101 336v526zM302 1439
c54.667 0 100.333 -16.499 137 -49.499s55 -74.5 55 -124.5c0 -49.333 -19.333 -92.5 -58 -129.5s-84 -55.5 -136 -55.5c-49.333 0 -92.5 18.5 -129.5 55.5s-55.5 80.167 -55.5 129.5c0 47.333 18.5 88.166 55.5 122.499s80.833 51.5 131.5 51.5zM801.999 1437
c54.667 0 100.333 -16.499 137 -49.499s55 -74.5 55 -124.5c0 -49.333 -19.333 -92.5 -58 -129.5s-84 -55.5 -136 -55.5c-49.333 0 -92.5 18.5 -129.5 55.5s-55.5 80.167 -55.5 129.5c0 47.333 18.5 88.166 55.5 122.499s80.833 51.5 131.5 51.5z" />
    <glyph glyph-name="yacute" unicode="&#xfd;" horiz-adv-x="1098" 
d="M238 -437v325c50.667 -21.333 95 -32 133 -32c121.333 0 200 68.333 236 205c-65.333 -38.667 -129.333 -58 -192 -58c-92.667 0 -169 34.5 -229 103.5s-90 156.833 -90 263.5v627h374v-536c0 -59.333 24.667 -89 74 -89c47.333 0 71 32.667 71 98v527h374v-890
c0 -166 -46.667 -300 -140 -402c-111.333 -121.333 -246 -182 -404 -182c-69.333 0 -138.333 13.333 -207 40zM604 1329h237l-237 -232h-211z" />
    <glyph glyph-name="thorn" unicode="&#xfe;" horiz-adv-x="1185" 
d="M87 1365h373.998v-368c51.333 13.333 98 20 140 20c148.667 0 274 -50 376 -150s153 -222.667 153 -368c0 -141.333 -50.667 -263.333 -152 -366s-221.333 -154 -360 -154c-22.667 0 -56 2.33301 -100 7v412c30.667 -24.667 61.334 -37 92.001 -37
c38.667 0 71.834 14.333 99.501 43s41.5 62.667 41.5 102s-14.333 72.833 -43 100.5s-63 41.5 -103 41.5c-96 0 -144 -66.333 -144 -199v-818h-374v1734z" />
    <glyph glyph-name="ydieresis" unicode="&#xff;" horiz-adv-x="1098" 
d="M238 -437v325c50.667 -21.333 95 -32 133 -32c121.333 0 200 68.333 236 205c-65.333 -38.667 -129.333 -58 -192 -58c-92.667 0 -169 34.5 -229 103.5s-90 156.833 -90 263.5v627h374v-536c0 -59.333 24.667 -89 74 -89c47.333 0 71 32.667 71 98v527h374v-890
c0 -166 -46.667 -300 -140 -402c-111.333 -121.333 -246 -182 -404 -182c-69.333 0 -138.333 13.333 -207 40zM297 1439c54.667 0 100.333 -16.499 137 -49.499s55 -74.5 55 -124.5c0 -49.333 -19.333 -92.5 -58 -129.5s-84 -55.5 -136 -55.5
c-49.333 0 -92.5 18.5 -129.5 55.5s-55.5 80.167 -55.5 129.5c0 47.333 18.5 88.166 55.5 122.499s80.833 51.5 131.5 51.5zM796.999 1437c54.667 0 100.333 -16.499 137 -49.499s55 -74.5 55 -124.5c0 -49.333 -19.333 -92.5 -58 -129.5s-84 -55.5 -136 -55.5
c-49.333 0 -92.5 18.5 -129.5 55.5s-55.5 80.167 -55.5 129.5c0 47.333 18.5 88.166 55.5 122.499s80.833 51.5 131.5 51.5z" />
    <glyph glyph-name="dotlessi" unicode="&#x131;" horiz-adv-x="593" 
d="M483 997v-997h-374v997h374z" />
    <glyph glyph-name="OE" unicode="&#x152;" horiz-adv-x="1939" 
d="M1816 837l-0.000976562 -303h-265c-67.333 0 -101 -22.333 -101 -67c0 -48 34.333 -72 103 -72h291v-395h-344c-70 0 -127.667 7.66699 -173 23s-92.333 43 -141 83c-132 -93.333 -270 -140 -414 -140c-216 0 -395.667 84 -539 252c-118.667 138 -178 293.333 -178 466
c0 196.667 70.833 365 212.5 505s311.834 210 510.501 210c152 0 288 -44.667 408 -134c48.667 39.333 91.667 65.833 129 79.5s85.333 20.5 144 20.5h385v-392h-269c-63.333 0 -95 -22.333 -95 -67c0 -46 33.667 -69 101 -69h235zM777.999 997
c-84.667 0 -157 -30.667 -217 -92s-90 -135 -90 -221c0 -86.667 30 -160.834 90 -222.501s132.333 -92.5 217 -92.5s157.167 30.833 217.5 92.5s90.5 135.834 90.5 222.501s-30 160.5 -90 221.5s-132.667 91.5 -218 91.5z" />
    <glyph glyph-name="oe" unicode="&#x153;" horiz-adv-x="1797" 
d="M1750 438h-581.001c-8.66699 32.667 -13 58.667 -13 78c0 22 6.33301 54.667 19 98h204c-12.667 74.667 -56.667 112 -132 112c-47.333 0 -86 -20.333 -116 -61s-45 -92.667 -45 -156c0 -62.667 14.667 -114 44 -154s66.666 -60 111.999 -60c40 0 78.667 19 116 57
l209 -255c-101.333 -78 -212.666 -117 -333.999 -117c-116 0 -226.333 40.333 -331 121c-101.333 -80.667 -214 -121 -338 -121c-143.333 0 -265.166 50 -365.499 150s-150.5 221 -150.5 363c0 146 49.833 269.833 149.5 371.5s221.167 152.5 364.5 152.5
c124.667 0 238 -42.667 340 -128c110.667 85.333 221.667 128 333 128c169.333 0 305.333 -63.333 408 -190c76 -94 114 -196.333 114 -307c0 -16.667 -2.33301 -44 -7 -82zM571.999 648c-41.333 0 -75.666 -14.6689 -102.999 -44.002s-41 -66.666 -41 -111.999
c0 -40 13.167 -74 39.5 -102s58.5 -42 96.5 -42c42.667 0 77.667 13.333 105 40s41 61.334 41 104.001c0 48 -12.333 86 -37 114s-58.334 42 -101.001 42z" />
    <glyph glyph-name="Scaron" unicode="&#x160;" horiz-adv-x="847" 
d="M778 1371v-389.001c-29.333 10 -52 15 -68 15c-30.667 0 -57 -11.333 -79 -34s-33 -50 -33 -82c0 -27.333 12 -62 36 -104l31 -54c56 -97.333 84 -191.333 84 -282c0 -132.667 -47.167 -245 -141.5 -337s-209.5 -138 -345.5 -138c-65.333 0 -130 15 -194 45v395
c38.667 -24.667 73 -37 103 -37c35.333 0 64.833 10.167 88.5 30.5s35.5 45.833 35.5 76.5c0 20 -19 63.667 -57 131c-60.667 106.667 -91 213.334 -91 320.001c0 128.667 45.833 239.5 137.5 332.5s201.167 139.5 328.5 139.5c56 0 111 -9.33301 165 -28zM537 1477
l-301 298h238l63 -60l58 60h234z" />
    <glyph glyph-name="scaron" unicode="&#x161;" horiz-adv-x="747" 
d="M734 983l0.000976562 -394c-52.667 0 -88.834 -9.83301 -108.501 -29.5s-32.167 -58.5 -37.5 -116.5c-17.333 -192.667 -92 -328.667 -224 -408c-70 -41.333 -169.333 -62 -298 -62h-52v396h17c60 0 102.833 12.5 128.5 37.5s40.5 68.833 44.5 131.5
c5.33301 102 14.833 173.667 28.5 215s41.5 82.333 83.5 123c73.333 71.333 175 107 305 107h113zM558.001 1093l-265 268h214l51 -49l45 49h234z" />
    <glyph glyph-name="Ydieresis" unicode="&#x178;" horiz-adv-x="1030" 
d="M1099 1365l-386 -607v-758h-406v758l-389 607h412l176 -281l189 281h404zM280 1809c50 0 92.5 -17.5 127.5 -52.5s52.5 -77.167 52.5 -126.5c0 -50 -17.5 -92.5 -52.5 -127.5s-77.5 -52.5 -127.5 -52.5c-49.333 0 -91.5 17.5 -126.5 52.5s-52.5 77.5 -52.5 127.5
c0 49.333 17.5 91.5 52.5 126.5s77.167 52.5 126.5 52.5zM749 1809c50 0 92.5 -17.5 127.5 -52.5s52.5 -77.167 52.5 -126.5c0 -50 -17.5 -92.5 -52.5 -127.5s-77.5 -52.5 -127.5 -52.5c-49.333 0 -91.5 17.5 -126.5 52.5s-52.5 77.5 -52.5 127.5
c0 49.333 17.5 91.5 52.5 126.5s77.167 52.5 126.5 52.5z" />
    <glyph glyph-name="florin" unicode="&#x192;" horiz-adv-x="1164" 
d="M818 912l166 0.000976562l-69 -392h-166l-41 -230c-16.667 -96 -47.334 -177.333 -92.001 -244c-57.333 -86 -132.666 -156.167 -225.999 -210.5s-186 -81.5 -278 -81.5l-39 1l69 392h19c47.333 0 86.5 15.667 117.5 47s51.5 75.333 61.5 132l116 657
c20 111.333 59.667 205.666 119 282.999c60 76.667 133.5 138.167 220.5 184.5s172.5 69.5 256.5 69.5l39 -1l-69 -393c-8 0.666992 -14.333 1 -19 1c-66 0 -115.667 -29 -149 -87c-12.667 -22 -24.667 -64.667 -36 -128z" />
    <glyph glyph-name="circumflex" unicode="&#x2c6;" 
d="M505 1361l279 -268h-234l-45 49l-51 -49h-214z" />
    <glyph glyph-name="caron" unicode="&#x2c7;" 
d="M505 1093l-265 268h214l51 -49l45 49h234z" />
    <glyph glyph-name="macron" unicode="&#x2c9;" 
d="M764 1298v-156h-504v156h504z" />
    <glyph glyph-name="breve" unicode="&#x2d8;" 
d="M579 1325h186c-28.667 -164 -113 -246 -253 -246c-139.333 0 -223.333 82 -252 246h185c6 -57.333 28.333 -86 67 -86c40 0 62.333 28.667 67 86z" />
    <glyph glyph-name="dotaccent" unicode="&#x2d9;" 
d="M512 1440c50.667 0 94.5 -17.833 131.5 -53.5s55.5 -77.5 55.5 -125.5c0 -52 -17.5 -94.667 -52.5 -128s-79.833 -50 -134.5 -50s-99.5 16.667 -134.5 50s-52.5 76 -52.5 128c0 48 18.5 89.833 55.5 125.5s80.833 53.5 131.5 53.5z" />
    <glyph glyph-name="ring" unicode="&#x2da;" 
d="M512 1470c52.667 0 97.834 -18.833 135.501 -56.5s56.5 -83.167 56.5 -136.5s-18.833 -98.833 -56.5 -136.5s-82.834 -56.5 -135.501 -56.5c-53.333 0 -98.833 18.833 -136.5 56.5s-56.5 83.167 -56.5 136.5s18.833 98.833 56.5 136.5s83.167 56.5 136.5 56.5zM511 1339
c-17.333 0 -32 -6 -44 -18s-18 -26.667 -18 -44s6 -32 18 -44s26.667 -18 44 -18c16.667 0 31 6 43 18s18 26.667 18 44s-6 32 -18 44s-26.333 18 -43 18z" />
    <glyph glyph-name="ogonek" unicode="&#x2db;" 
d="M720 -377c-33.333 -7.33301 -64.333 -11.001 -93 -11.001c-66 0 -122.833 20.833 -170.5 62.5s-71.5 91.5 -71.5 149.5c0 64.667 39.333 123.334 118 176.001h210c-75.333 -52 -113 -95.667 -113 -131c0 -18.667 7.16699 -34.5 21.5 -47.5s31.833 -19.5 52.5 -19.5
c10 0 24.333 3 43 9z" />
    <glyph glyph-name="tilde" unicode="&#x2dc;" 
d="M609 1322h154c0 -67.333 -15.667 -122.666 -47 -165.999s-71.333 -65 -120 -65c-27.333 0 -54 8 -80 24l-45 28c-6.66699 4 -13.667 6.33301 -21 7c-20.667 1.33301 -34 -16 -40 -52h-149c0 72 14.5 128 43.5 168s69.833 60 122.5 60
c26.667 0 52.334 -7.66699 77.001 -23l40 -24c7.33301 -4.66699 15.666 -7.33398 24.999 -8.00098c22.667 -1.33301 36 15.667 40 51z" />
    <glyph glyph-name="hungarumlaut" unicode="&#x2dd;" 
d="M410 1329h210l-210 -232h-184zM710 1329h210l-210 -232h-184z" />
    <glyph glyph-name="pi" unicode="&#x3c0;" horiz-adv-x="1321" 
d="M190 0v727h-149v255h1238v-255h-148v-727h-323v727h-295v-727h-323z" />
    <glyph glyph-name="endash" unicode="&#x2013;" 
d="M961 738v-265h-897v265h897z" />
    <glyph glyph-name="emdash" unicode="&#x2014;" horiz-adv-x="1370" 
d="M1370 738v-265h-1370v265h1370z" />
    <glyph glyph-name="quoteleft" unicode="&#x2018;" horiz-adv-x="763" 
d="M388 1392v-72.001c66.667 -4 121 -27.667 163 -71s63 -97 63 -161c0 -67.333 -22.5 -123.833 -67.5 -169.5s-100.833 -68.5 -167.5 -68.5c-64.667 0 -119 23 -163 69s-66 103 -66 171c0 70.667 21.5 133.334 64.5 188.001s100.833 92.667 173.5 114z" />
    <glyph glyph-name="quoteright" unicode="&#x2019;" horiz-adv-x="763" 
d="M376 850v73.001c-66.667 4 -121 27.5 -163 70.5s-63 96.5 -63 160.5c0 67.333 22.5 123.833 67.5 169.5s100.833 68.5 167.5 68.5c64.667 0 119 -23 163 -69s66 -103 66 -171c0 -70.667 -21.5 -133.334 -64.5 -188.001s-100.833 -92.667 -173.5 -114z" />
    <glyph glyph-name="quotesinglbase" unicode="&#x201a;" horiz-adv-x="763" 
d="M376 -104v73.001c-66.667 4 -121 27.667 -163 71s-63 97 -63 161c0 67.333 22.5 123.833 67.5 169.5s100.833 68.5 167.5 68.5c64.667 0 119 -23 163 -69s66 -103 66 -171c0 -70.667 -21.5 -133.334 -64.5 -188.001s-100.833 -93 -173.5 -115z" />
    <glyph glyph-name="quotedblleft" unicode="&#x201c;" horiz-adv-x="1309" 
d="M934 1393v-73.001c66.667 -4 121 -27.667 163 -71s63 -97 63 -161c0 -67.333 -22.5 -123.833 -67.5 -169.5s-100.833 -68.5 -167.5 -68.5c-64.667 0 -119 23 -163 69s-66 103 -66 171c0 70.667 21.5 133.334 64.5 188.001s100.833 93 173.5 115zM388 1392v-72.001
c66.667 -4 121 -27.667 163 -71s63 -97 63 -161c0 -67.333 -22.5 -123.833 -67.5 -169.5s-100.833 -68.5 -167.5 -68.5c-64.667 0 -119 23 -163 69s-66 103 -66 171c0 70.667 21.5 133.334 64.5 188.001s100.833 92.667 173.5 114z" />
    <glyph glyph-name="quotedblright" unicode="&#x201d;" horiz-adv-x="1309" 
d="M376 850v73.001c-66.667 4 -121 27.5 -163 70.5s-63 96.5 -63 160.5c0 67.333 22.5 123.833 67.5 169.5s100.833 68.5 167.5 68.5c64.667 0 119 -23 163 -69s66 -103 66 -171c0 -70.667 -21.5 -133.334 -64.5 -188.001s-100.833 -92.667 -173.5 -114zM922 850.001v73.001
c-66.667 4 -121 27.5 -163 70.5s-63 96.5 -63 160.5c0 67.333 22.5 123.833 67.5 169.5s100.833 68.5 167.5 68.5c64.667 0 119 -23 163 -69s66 -103 66 -171c0 -70.667 -21.5 -133.334 -64.5 -188.001s-100.833 -92.667 -173.5 -114z" />
    <glyph glyph-name="quotedblbase" unicode="&#x201e;" horiz-adv-x="1309" 
d="M376 -104v73.001c-66.667 4 -121 27.667 -163 71s-63 97 -63 161c0 67.333 22.5 123.833 67.5 169.5s100.833 68.5 167.5 68.5c64.667 0 119 -23 163 -69s66 -103 66 -171c0 -70.667 -21.5 -133.334 -64.5 -188.001s-100.833 -93 -173.5 -115zM922 -103.999v73.001
c-66.667 4 -121 27.667 -163 71s-63 97 -63 161c0 67.333 22.5 123.833 67.5 169.5s100.833 68.5 167.5 68.5c64.667 0 119 -23 163 -69s66 -103 66 -171c0 -70.667 -21.5 -133.334 -64.5 -188.001s-100.833 -93 -173.5 -115z" />
    <glyph glyph-name="dagger" unicode="&#x2020;" 
d="M678 -259h-333v867h-163v375h163v382h333v-382h164v-375h-164v-867z" />
    <glyph glyph-name="daggerdbl" unicode="&#x2021;" 
d="M352 669h-170v355h170v341h320v-341h170v-355h-170v-218h170v-355h-170v-355h-320v355h-170v355h170v218z" />
    <glyph glyph-name="bullet" unicode="&#x2022;" horiz-adv-x="1365" 
d="M685 978c78.667 0 145.667 -27.667 201 -83s83 -122.333 83 -201s-27.667 -145.667 -83 -201s-122.333 -83 -201 -83s-145.667 27.667 -201 83s-83 122.333 -83 201s27.667 145.667 83 201s122.333 83 201 83z" />
    <glyph glyph-name="ellipsis" unicode="&#x2026;" horiz-adv-x="2325" 
d="M386 448c65.333 0 121.5 -23.668 168.5 -71.001s70.5 -103.666 70.5 -168.999s-23.333 -120.833 -70 -166.5s-103 -68.5 -169 -68.5c-68.667 0 -125.167 22.167 -169.5 66.5s-66.5 100.833 -66.5 169.5c0 66.667 23 123.167 69 169.5s101.667 69.5 167 69.5z
M1161 447.999c65.333 0 121.5 -23.668 168.5 -71.001s70.5 -103.666 70.5 -168.999s-23.333 -120.833 -70 -166.5s-103 -68.5 -169 -68.5c-68.667 0 -125.167 22.167 -169.5 66.5s-66.5 100.833 -66.5 169.5c0 66.667 23 123.167 69 169.5s101.667 69.5 167 69.5z
M1937 447.998c64.667 0 120.5 -23.668 167.5 -71.001s70.5 -103.666 70.5 -168.999c0 -64.667 -23.333 -120 -70 -166s-103 -69 -169 -69c-68.667 0 -125.167 22.167 -169.5 66.5s-66.5 100.833 -66.5 169.5c0 66.667 23 123.167 69 169.5s102 69.5 168 69.5z" />
    <glyph glyph-name="perthousand" unicode="&#x2030;" horiz-adv-x="2744" 
d="M487 1384c98.667 0 183.001 -34.832 253.001 -104.499s105 -153.834 105 -252.501c0 -99.333 -34.833 -183.833 -104.5 -253.5s-154.167 -104.5 -253.5 -104.5c-98.667 0 -182.834 35 -252.501 105s-104.5 154.333 -104.5 253c0 98 35 182 105 252s154 105 252 105z
M488.001 1184c-43.333 0 -80.333 -15.333 -111 -46s-46 -67.667 -46 -111s15.333 -80.333 46 -111s67.667 -46 111 -46s80.333 15.333 111 46s46 67.667 46 111s-15.333 80.333 -46 111s-67.667 46 -111 46zM1278 1365l-551 -1365h-122l554 1365h119zM1411 702.001
c98 0 182 -35 252 -105s105 -154.333 105 -253s-35 -183 -105 -253s-154 -105 -252 -105c-98.667 0 -183 35 -253 105s-105 154.333 -105 253s35 183 105 253s154.333 105 253 105zM1411 502.001c-43.333 0 -80.333 -15.333 -111 -46s-46 -67.667 -46 -111
c0 -44 15.333 -81.333 46 -112s67.667 -46 111 -46s80.333 15.333 111 46s46 68 46 112c0 43.333 -15.333 80.333 -46 111s-67.667 46 -111 46zM2257 702.001c98 0 182.001 -35 252.001 -105s105 -154.333 105 -253s-34.833 -183 -104.5 -253s-153.834 -105 -252.501 -105
c-99.333 0 -183.833 35 -253.5 105s-104.5 154.333 -104.5 253s35 183 105 253s154.333 105 253 105zM2257 502.001c-43.333 0 -80.333 -15.333 -111 -46s-46 -67.667 -46 -111c0 -44 15.333 -81.333 46 -112s67.667 -46 111 -46s80.333 15.333 111 46s46 68 46 112
c0 43.333 -15.333 80.333 -46 111s-67.667 46 -111 46z" />
    <glyph glyph-name="guilsinglleft" unicode="&#x2039;" horiz-adv-x="497" 
d="M223 146l-141 332l141 350h192l-143 -350l143 -332h-192z" />
    <glyph glyph-name="guilsinglright" unicode="&#x203a;" horiz-adv-x="497" 
d="M274 828l141 -332l-141 -350h-192l143 350l-143 332h192z" />
    <glyph glyph-name="Euro" unicode="&#x20ac;" horiz-adv-x="1163" 
d="M1106 203l-14.002 -20.001c-55.333 -80.667 -117.5 -137.167 -186.5 -169.5s-143.5 -48.5 -223.5 -48.5c-148.667 0 -266.167 49.333 -352.5 148s-131.166 234.334 -134.499 407.001h-152l20 119h132v100h-152l20 121h132c6 172 52.667 304.833 140 398.5
s203 140.5 347 140.5c90 0 166.167 -16.667 228.5 -50s125.5 -93.333 189.5 -180l-312 -227l-10 23c-11.333 24.667 -23.166 43 -35.499 55s-32.5 18 -60.5 18c-65.333 0 -98 -41.667 -98 -125v-53h272l-18 -121h-254v-98h272l-18 -121h-254v-67
c0 -83.333 32.667 -125 98 -125c25.333 0 46 6.5 62 19.5s31.667 41.167 47 84.5z" />
    <glyph glyph-name="trademark" unicode="&#x2122;" horiz-adv-x="1576" 
d="M427 1136v-549h-242v549h-180v228h602v-228h-180zM672 587l-0.000976562 557.999c0 70 21.833 127.167 65.5 171.5s99.834 66.5 168.501 66.5c82.667 0 145.667 -35.333 189 -106c48.667 70.667 114.667 106 198 106c72 0 127.167 -22.167 165.5 -66.5
s57.5 -108.166 57.5 -191.499v-538h-242v504c0 38.667 -9 58 -27 58c-20.667 0 -31 -14.333 -31 -43v-11v-508h-242v504c0 38.667 -9.33301 58 -28 58c-21.333 0 -32 -19.333 -32 -58v-504h-242z" />
    <glyph glyph-name="Omega" unicode="&#x2126;" horiz-adv-x="1365" 
d="M56 0v300.002h253c-174 110.667 -261 261 -261 451c0 183.333 61 337.166 183 461.499s272.667 186.5 452 186.5c178.667 0 329 -62.333 451 -187s183 -278.334 183 -461.001c0 -190 -87 -340.333 -261 -451h253v-300h-559v276c143.333 72.667 215 213 215 421
c0 115.333 -26.667 210.5 -80 285.5s-121 112.5 -203 112.5c-81.333 0 -148.833 -37.5 -202.5 -112.5s-80.5 -169.5 -80.5 -283.5c0 -208.667 71.667 -349.667 215 -423v-276h-558z" />
    <glyph glyph-name="partialdiff" unicode="&#x2202;" 
d="M104 1090l38.9971 265.997c280.667 -28.667 492.834 -111.167 636.501 -247.5s215.5 -323.166 215.5 -560.499c0 -175.333 -44.167 -313.333 -132.5 -414s-209.5 -151 -363.5 -151c-138 0 -251.333 44.5 -340 133.5s-133 202.5 -133 340.5
c0 120.667 39.333 221.834 118 303.501s176.334 122.5 293.001 122.5c92 0 168.667 -23.667 230 -71c-48.667 84.667 -108 145.667 -178 183c-93.333 50.667 -221.666 82.334 -384.999 95.001zM508.997 628.997c-48.667 0 -90.334 -18.333 -125.001 -55
s-52 -80.334 -52 -131.001c0 -52 17.167 -96.333 51.5 -133s75.5 -55 123.5 -55c49.333 0 91 18.333 125 55s51 81 51 133c0 52.667 -16.667 96.834 -50 132.501s-74.666 53.5 -123.999 53.5z" />
    <glyph glyph-name="Delta" unicode="&#x2206;" horiz-adv-x="1348" 
d="M18 0l474 1365h359l478 -1365h-1311zM458 300h424l-208 701z" />
    <glyph glyph-name="product" unicode="&#x220f;" horiz-adv-x="1365" 
d="M32 1536h1300v-276h-145v-1496h145v-276h-580v276h126v1496h-391v-1496h122v-276h-577v276h148v1496h-148v276z" />
    <glyph glyph-name="summation" unicode="&#x2211;" horiz-adv-x="1365" 
d="M1291 1536v-542h-311l-38 224h-485l491 -677l-488 -735h500l22 236h327v-554h-1240v366l469 686l-469 629v367h1222z" />
    <glyph glyph-name="fraction" unicode="&#x2215;" horiz-adv-x="250" 
d="M482 1365l-551 -1365h-163l554 1365h160z" />
    <glyph glyph-name="periodcentered" unicode="&#x2219;" horiz-adv-x="775" 
d="M386 737c65.333 0 121.5 -23.668 168.5 -71.001s70.5 -103.666 70.5 -168.999s-23.333 -120.833 -70 -166.5s-103 -68.5 -169 -68.5c-68.667 0 -125.167 22.167 -169.5 66.5s-66.5 100.833 -66.5 169.5c0 66.667 23 123.167 69 169.5s101.667 69.5 167 69.5z" />
    <glyph glyph-name="radical" unicode="&#x221a;" horiz-adv-x="1365" 
d="M1365 1693v-285h-327l-339 -1408h-406l-105 497h-188v285h383l46 -194c14 -57.333 25.667 -156 35 -296h20c19.333 193.333 56 400.333 110 621l191 780h580z" />
    <glyph glyph-name="infinity" unicode="&#x221e;" horiz-adv-x="1365" 
d="M689 541c-97.333 -116 -208 -174 -332 -174c-94 0 -171.167 31.167 -231.5 93.5s-90.5 141.833 -90.5 238.5c0 94 31 171.667 93 233s140.333 92 235 92c118 0 223 -57.667 315 -173c91.333 115.333 199.666 173 324.999 173c96 0 174.5 -30.667 235.5 -92
s91.5 -140.333 91.5 -237s-30.833 -175.667 -92.5 -237s-141.167 -92 -238.5 -92c-117.333 0 -220.666 58.333 -309.999 175zM800 696c55.333 -78 110.999 -116.999 166.999 -116.999c33.333 0 61.5 11.167 84.5 33.5s34.5 50.166 34.5 83.499
c0 32.667 -11.667 60.167 -35 82.5s-51.666 33.5 -84.999 33.5c-56 0 -111.333 -38.667 -166 -116zM565.999 695.001c-55.333 77.333 -111.332 116 -167.999 116c-33.333 0 -61.5 -11.167 -84.5 -33.5s-34.5 -49.833 -34.5 -82.5s11.667 -60.167 35 -82.5
s51.666 -33.5 84.999 -33.5c55.333 0 111 38.667 167 116z" />
    <glyph glyph-name="integral" unicode="&#x222b;" 
d="M57 -491l54.999 327.001c35.333 -14 65.666 -21 90.999 -21c37.333 0 67.333 11.667 90 35c14 14 23 30.5 27 49.5s6 53.833 6 104.5v116v720v116c0 118 3.33301 200 10 246s21.667 89.667 45 131c76.667 135.333 208.334 203 395.001 203c51.333 0 115 -6.66699 191 -20
l-55 -328c-34.667 13.333 -65.667 20 -93 20c-46.667 0 -78.5 -13.333 -95.5 -40s-25.5 -76.334 -25.5 -149.001v-825c0 -193.333 -3 -315.333 -9 -366s-23.667 -100 -53 -148c-77.333 -126.667 -209 -190 -395 -190c-67.333 0 -128.666 6.33301 -183.999 19z" />
    <glyph glyph-name="approxequal" unicode="&#x2248;" 
d="M190 713l-174.999 124c78 198.667 184.333 298 319 298c40 0 115 -21.333 225 -64l75 -30c26 -10 49 -15 69 -15c26.667 0 48.667 6 66 18s39 36.667 65 74l175 -124c-44 -107.333 -90.333 -183.5 -139 -228.5s-109.667 -67.5 -183 -67.5
c-45.333 0 -121.666 22 -228.999 66c-66.667 27.333 -114.334 41 -143.001 41c-40.667 0 -82.334 -30.667 -125.001 -92zM190.001 233l-174.996 123c78 199.333 184.333 299 319 299c40.667 0 115.667 -21.667 225 -65l75 -30c26 -10 49.333 -15 70 -15
c43.333 0 86.666 30.667 129.999 92l175 -123c-44 -108 -90.333 -184.5 -139 -229.5s-109.334 -67.5 -182.001 -67.5c-46 0 -122.667 22 -230 66c-66.667 28 -114.334 42 -143.001 42c-40.667 0 -82.334 -30.667 -125.001 -92z" />
    <glyph glyph-name="notequal" unicode="&#x2260;" 
d="M518 1009l146 271l224 -125l-83 -146h151v-305h-274l-79 -140h351v-305h-462l-123 -224l-224 125l59 99h-136v305h247l80 140h-326v305h449z" />
    <glyph glyph-name="lessequal" unicode="&#x2264;" 
d="M955 1359v-340l-489 -139l489 -137v-340l-887 326v305zM955 350v-320h-887v320h887z" />
    <glyph glyph-name="greaterequal" unicode="&#x2265;" 
d="M69 403v340l488 137l-489 139v340l887 -325v-305zM68 30v320h887v-320h-887z" />
    <glyph glyph-name="lozenge" unicode="&#x25ca;" horiz-adv-x="1365" 
d="M683 1419l532 -736l-532 -736l-532 736zM683 1237l-404 -554l404 -555l403 555z" />
    <glyph glyph-name="fi" unicode="&#xf001;" horiz-adv-x="1146" 
d="M609 776l0.000976562 -392h-126v-384h-374v847c0 111.333 22.667 205.333 68 282c40.667 67.333 101.667 126.666 183 177.999s155.666 77 222.999 77c6.66699 0 17.667 -0.666992 33 -2v-392c-50 -11.333 -84.667 -30.166 -104 -56.499s-29 -67.5 -29 -123.5v-34h126z
M1035 997v-997h-374v997h374zM868.001 1399c49.333 0 92.001 -17 128.001 -51s54 -74 54 -120c0 -49.333 -17.833 -90.5 -53.5 -123.5s-80.167 -49.5 -133.5 -49.5c-50.667 0 -92.334 16.667 -125.001 50s-49 76 -49 128c0 46 17.5 85.167 52.5 117.5
s77.167 48.5 126.5 48.5z" />
    <glyph glyph-name="fl" unicode="&#xf002;" horiz-adv-x="1144" 
d="M609 776l-0.000976562 -392.001h-126v-384h-374v847c0 128 30.667 233.667 92 317c46 62.667 105.667 114.667 179 156s142.333 62 207 62h22v-392c-47.333 -11.333 -80.166 -30.166 -98.499 -56.499s-27.5 -67.5 -27.5 -123.5v-34h126zM1035 1365v-1365h-374v1365h374z
" />
    <glyph glyph-name=".null" horiz-adv-x="0" 
 />
    <glyph glyph-name="nonmarkingreturn" horiz-adv-x="512" 
 />
    <glyph glyph-name="glyph240" horiz-adv-x="1212" 
d="M372 1809c49.333 0 91.5 -17.5 126.5 -52.5s52.5 -77.167 52.5 -126.5c0 -50 -17.5 -92.5 -52.5 -127.5s-77.167 -52.5 -126.5 -52.5c-50 0 -92.5 17.5 -127.5 52.5s-52.5 77.5 -52.5 127.5c0 49.333 17.5 91.5 52.5 126.5s77.5 52.5 127.5 52.5zM841 1809
c49.333 0 91.5 -17.5 126.5 -52.5s52.5 -77.167 52.5 -126.5c0 -50 -17.5 -92.5 -52.5 -127.5s-77.167 -52.5 -126.5 -52.5c-50 0 -92.5 17.5 -127.5 52.5s-52.5 77.5 -52.5 127.5c0 49.333 17.5 91.5 52.5 126.5s77.5 52.5 127.5 52.5z" />
    <glyph glyph-name="glyph241" horiz-adv-x="1212" 
d="M993 1751l-279 -273h-249l249 273h279z" />
    <glyph glyph-name="glyph242" horiz-adv-x="1212" 
d="M260 1752h279l249 -273h-249z" />
    <glyph glyph-name="glyph243" horiz-adv-x="1212" 
d="M603 1775l301 -298h-239l-62 60l-58 -60h-235z" />
    <glyph glyph-name="glyph244" horiz-adv-x="1212" 
d="M722 1744l176.001 0.000976562c-3.33301 -82.667 -20.333 -147.834 -51 -195.501s-70.667 -71.5 -120 -71.5c-31.333 0 -75 15.667 -131 47c-26 14.667 -44.333 22 -55 22c-22 0 -35 -20.333 -39 -61h-187c16.667 178 80.667 267 192 267c30.667 0 65 -10.333 103 -31
l40 -21c15.333 -8.66699 28.666 -13 39.999 -13c22 0 33 14.333 33 43c0 3.33301 -0.333008 8 -1 14z" />
    <glyph glyph-name="glyph245" horiz-adv-x="1212" 
d="M606 1841c53.333 0 98.833 -18.833 136.5 -56.5s56.5 -82.834 56.5 -135.501c0 -53.333 -18.833 -98.833 -56.5 -136.5s-83.167 -56.5 -136.5 -56.5s-98.833 18.833 -136.5 56.5s-56.5 83.167 -56.5 136.5c0 52.667 18.833 97.834 56.5 135.501s83.167 56.5 136.5 56.5z
M605 1710c-16.667 0 -31.167 -6 -43.5 -18s-18.5 -26.333 -18.5 -43c0 -17.333 6 -32 18 -44s26.667 -18 44 -18s32.166 6 44.499 18s18.5 26.667 18.5 44c0 16.667 -6.16699 31 -18.5 43s-27.166 18 -44.499 18z" />
    <glyph glyph-name="glyph246" horiz-adv-x="987" 
d="M341 1809c49.333 0 91.5 -17.5 126.5 -52.5s52.5 -77.167 52.5 -126.5c0 -50 -17.5 -92.5 -52.5 -127.5s-77.167 -52.5 -126.5 -52.5c-50 0 -92.5 17.5 -127.5 52.5s-52.5 77.5 -52.5 127.5c0 49.333 17.5 91.5 52.5 126.5s77.5 52.5 127.5 52.5zM811 1809
c49.333 0 91.5 -17.5 126.5 -52.5s52.5 -77.167 52.5 -126.5c0 -50 -17.5 -92.5 -52.5 -127.5s-77.167 -52.5 -126.5 -52.5c-50 0 -92.5 17.5 -127.5 52.5s-52.5 77.5 -52.5 127.5c0 49.333 17.5 91.5 52.5 126.5s77.5 52.5 127.5 52.5z" />
    <glyph glyph-name="glyph247" horiz-adv-x="987" 
d="M1018 1751l-280 -273h-249l249 273h280z" />
    <glyph glyph-name="glyph248" horiz-adv-x="987" 
d="M216 1752h280l249 -273h-249z" />
    <glyph glyph-name="glyph249" horiz-adv-x="987" 
d="M571 1775l301 -298h-239l-62 60l-58 -60h-234z" />
    <glyph glyph-name="glyph250" horiz-adv-x="678" 
d="M116 1801c47.333 0 87.666 -16.667 120.999 -50s50 -73.666 50 -120.999c0 -46.667 -16.667 -86.667 -50 -120s-73.666 -50 -120.999 -50c-46.667 0 -86.667 16.667 -120 50s-50 73.333 -50 120c0 47.333 16.667 87.666 50 120.999s73.333 50 120 50zM562 1801
c47.333 0 87.666 -16.667 120.999 -50s50 -73.666 50 -120.999c0 -46.667 -16.667 -86.667 -50 -120s-73.666 -50 -120.999 -50c-46.667 0 -86.667 16.667 -120 50s-50 73.333 -50 120c0 47.333 16.667 87.666 50 120.999s73.333 50 120 50z" />
    <glyph glyph-name="glyph251" horiz-adv-x="679" 
d="M727 1751l-280 -273h-249l249 273h280z" />
    <glyph glyph-name="glyph252" horiz-adv-x="679" 
d="M-7 1752h280l249 -273h-249z" />
    <glyph glyph-name="glyph253" horiz-adv-x="679" 
d="M335 1775l302 -298h-239l-63 60l-58 -60h-234z" />
    <glyph glyph-name="glyph254" horiz-adv-x="1206" 
d="M718 1744l176 0.000976562c-4 -82.667 -21.333 -147.834 -52 -195.501s-70.667 -71.5 -120 -71.5c-31.333 0 -75 15.667 -131 47c-25.333 14.667 -43.333 22 -54 22c-22 0 -35 -20.333 -39 -61h-187c16.667 178 80.334 267 191.001 267c30.667 0 65 -10.333 103 -31
l40 -21c15.333 -8.66699 28.666 -13 39.999 -13c22 0 33 14.333 33 43v14z" />
    <glyph glyph-name="glyph255" horiz-adv-x="1543" 
d="M537 1809c49.333 0 91.5 -17.5 126.5 -52.5s52.5 -77.167 52.5 -126.5c0 -50 -17.5 -92.5 -52.5 -127.5s-77.167 -52.5 -126.5 -52.5c-50 0 -92.5 17.5 -127.5 52.5s-52.5 77.5 -52.5 127.5c0 49.333 17.5 91.5 52.5 126.5s77.5 52.5 127.5 52.5zM1007 1809
c49.333 0 91.5 -17.5 126.5 -52.5s52.5 -77.167 52.5 -126.5c0 -50 -17.5 -92.5 -52.5 -127.5s-77.167 -52.5 -126.5 -52.5c-50 0 -92.5 17.5 -127.5 52.5s-52.5 77.5 -52.5 127.5c0 49.333 17.5 91.5 52.5 126.5s77.5 52.5 127.5 52.5z" />
    <glyph glyph-name="glyph256" horiz-adv-x="1543" 
d="M1159 1751l-280 -273h-249l249 273h280z" />
    <glyph glyph-name="glyph257" horiz-adv-x="1543" 
d="M425 1752h279l249 -273h-249z" />
    <glyph glyph-name="glyph258" horiz-adv-x="1543" 
d="M768 1775l301 -298h-239l-62 60l-58 -60h-235z" />
    <glyph glyph-name="glyph259" horiz-adv-x="1543" 
d="M887 1744l175.999 0.000976562c-4 -82.667 -21.167 -147.834 -51.5 -195.501s-70.166 -71.5 -119.499 -71.5c-31.333 0 -75.333 15.667 -132 47c-25.333 14.667 -43.333 22 -54 22c-22 0 -35 -20.333 -39 -61h-187c16.667 178 80.334 267 191.001 267
c30.667 0 65 -10.333 103 -31l40 -21c15.333 -8.66699 28.666 -13 39.999 -13c22 0 33 14.333 33 43v14z" />
    <glyph glyph-name="glyph260" horiz-adv-x="847" 
d="M537 1477l-301 298h238l63 -60l58 60h234z" />
    <glyph glyph-name="glyph261" horiz-adv-x="1206" 
d="M367 1809c50 0 92.5 -17.5 127.5 -52.5s52.5 -77.167 52.5 -126.5c0 -50 -17.5 -92.5 -52.5 -127.5s-77.5 -52.5 -127.5 -52.5c-49.333 0 -91.5 17.5 -126.5 52.5s-52.5 77.5 -52.5 127.5c0 49.333 17.5 91.5 52.5 126.5s77.167 52.5 126.5 52.5zM838 1809
c49.333 0 91.5 -17.5 126.5 -52.5s52.5 -77.167 52.5 -126.5c0 -50 -17.5 -92.5 -52.5 -127.5s-77.167 -52.5 -126.5 -52.5c-50 0 -92.5 17.5 -127.5 52.5s-52.5 77.5 -52.5 127.5c0 49.333 17.5 91.5 52.5 126.5s77.5 52.5 127.5 52.5z" />
    <glyph glyph-name="glyph262" horiz-adv-x="1206" 
d="M990 1751l-280 -273h-249l249 273h280z" />
    <glyph glyph-name="glyph263" horiz-adv-x="1206" 
d="M257 1752h280l249 -273h-249z" />
    <glyph glyph-name="glyph264" horiz-adv-x="1206" 
d="M598 1775l301 -298h-239l-62 60l-58 -60h-234z" />
    <glyph glyph-name="glyph265" horiz-adv-x="1030" 
d="M902 1751l-279 -273h-249l249 273h279z" />
    <glyph glyph-name="glyph266" horiz-adv-x="1030" 
d="M280 1809c50 0 92.5 -17.5 127.5 -52.5s52.5 -77.167 52.5 -126.5c0 -50 -17.5 -92.5 -52.5 -127.5s-77.5 -52.5 -127.5 -52.5c-49.333 0 -91.5 17.5 -126.5 52.5s-52.5 77.5 -52.5 127.5c0 49.333 17.5 91.5 52.5 126.5s77.167 52.5 126.5 52.5zM749 1809
c50 0 92.5 -17.5 127.5 -52.5s52.5 -77.167 52.5 -126.5c0 -50 -17.5 -92.5 -52.5 -127.5s-77.5 -52.5 -127.5 -52.5c-49.333 0 -91.5 17.5 -126.5 52.5s-52.5 77.5 -52.5 127.5c0 49.333 17.5 91.5 52.5 126.5s77.167 52.5 126.5 52.5z" />
    <glyph glyph-name="glyph267" horiz-adv-x="593" 
d="M76 1418c49.333 0 90.5 -14.832 123.5 -44.499s49.5 -66.834 49.5 -111.501s-17.5 -83.667 -52.5 -117s-75.5 -50 -121.5 -50c-44.667 0 -83.667 16.667 -117 50s-50 72.333 -50 117c0 42 16.5 78.5 49.5 109.5s72.5 46.5 118.5 46.5zM512 1416
c49.333 0 90.501 -14.832 123.501 -44.499s49.5 -66.834 49.5 -111.501s-17.5 -83.667 -52.5 -117s-75.5 -50 -121.5 -50c-44.667 0 -83.667 16.667 -117 50s-50 72.333 -50 117c0 42 16.667 78.5 50 109.5s72.666 46.5 117.999 46.5z" />
    <glyph glyph-name="glyph268" horiz-adv-x="593" 
d="M483 997v-997h-374v997h374z" />
  </font>
</defs>
</svg>
